<mxfile host="Electron" agent="Mozilla/5.0 (Windows NT 10.0; Win64; x64) AppleWebKit/537.36 (KHTML, like Gecko) draw.io/24.7.17 Chrome/128.0.6613.36 Electron/32.0.1 Safari/537.36" version="24.7.17">
  <diagram id="C5RBs43oDa-KdzZeNtuy" name="Page-1">
    <mxGraphModel dx="3407" dy="1242" grid="1" gridSize="10" guides="1" tooltips="1" connect="1" arrows="1" fold="1" page="1" pageScale="1" pageWidth="827" pageHeight="1169" math="0" shadow="0">
      <root>
        <mxCell id="WIyWlLk6GJQsqaUBKTNV-0" />
        <mxCell id="WIyWlLk6GJQsqaUBKTNV-1" parent="WIyWlLk6GJQsqaUBKTNV-0" />
        <mxCell id="BBi84ixBotoM4hK3SIDS-0" value="1-2" style="ellipse;whiteSpace=wrap;html=1;fontStyle=1;fontSize=20;" parent="WIyWlLk6GJQsqaUBKTNV-1" vertex="1">
          <mxGeometry x="320" y="40" width="70" height="50" as="geometry" />
        </mxCell>
        <mxCell id="BBi84ixBotoM4hK3SIDS-1" value="" style="endArrow=classic;html=1;rounded=0;exitX=0.5;exitY=1;exitDx=0;exitDy=0;fontSize=20;" parent="WIyWlLk6GJQsqaUBKTNV-1" source="BBi84ixBotoM4hK3SIDS-0" edge="1">
          <mxGeometry width="50" height="50" relative="1" as="geometry">
            <mxPoint x="390" y="340" as="sourcePoint" />
            <mxPoint x="355" y="140" as="targetPoint" />
          </mxGeometry>
        </mxCell>
        <mxCell id="BBi84ixBotoM4hK3SIDS-3" value="3" style="ellipse;whiteSpace=wrap;html=1;fontStyle=1;fontSize=20;" parent="WIyWlLk6GJQsqaUBKTNV-1" vertex="1">
          <mxGeometry x="320" y="140" width="70" height="50" as="geometry" />
        </mxCell>
        <mxCell id="BBi84ixBotoM4hK3SIDS-4" value="distance = 0" style="text;html=1;align=center;verticalAlign=middle;whiteSpace=wrap;rounded=0;fontSize=20;" parent="WIyWlLk6GJQsqaUBKTNV-1" vertex="1">
          <mxGeometry x="400" y="150" width="150" height="30" as="geometry" />
        </mxCell>
        <mxCell id="BBi84ixBotoM4hK3SIDS-5" value="" style="endArrow=classic;html=1;rounded=0;exitX=1;exitY=1;exitDx=0;exitDy=0;entryX=0;entryY=0;entryDx=0;entryDy=0;fontSize=20;" parent="WIyWlLk6GJQsqaUBKTNV-1" source="BBi84ixBotoM4hK3SIDS-6" target="BBi84ixBotoM4hK3SIDS-8" edge="1">
          <mxGeometry width="50" height="50" relative="1" as="geometry">
            <mxPoint x="490" y="280" as="sourcePoint" />
            <mxPoint x="500" y="360" as="targetPoint" />
          </mxGeometry>
        </mxCell>
        <mxCell id="BBi84ixBotoM4hK3SIDS-6" value="4" style="ellipse;whiteSpace=wrap;html=1;fontStyle=1;fontSize=20;" parent="WIyWlLk6GJQsqaUBKTNV-1" vertex="1">
          <mxGeometry x="430" y="230" width="70" height="50" as="geometry" />
        </mxCell>
        <mxCell id="BBi84ixBotoM4hK3SIDS-7" value="T" style="text;html=1;align=center;verticalAlign=middle;whiteSpace=wrap;rounded=0;fontSize=20;" parent="WIyWlLk6GJQsqaUBKTNV-1" vertex="1">
          <mxGeometry x="440" y="190" width="30" height="30" as="geometry" />
        </mxCell>
        <mxCell id="BBi84ixBotoM4hK3SIDS-8" value="5" style="ellipse;whiteSpace=wrap;html=1;fontStyle=1;fontSize=20;" parent="WIyWlLk6GJQsqaUBKTNV-1" vertex="1">
          <mxGeometry x="690" y="320" width="70" height="50" as="geometry" />
        </mxCell>
        <mxCell id="BBi84ixBotoM4hK3SIDS-10" value="" style="endArrow=classic;html=1;rounded=0;exitX=1;exitY=1;exitDx=0;exitDy=0;entryX=0;entryY=0;entryDx=0;entryDy=0;fontSize=20;" parent="WIyWlLk6GJQsqaUBKTNV-1" target="BBi84ixBotoM4hK3SIDS-6" edge="1">
          <mxGeometry width="50" height="50" relative="1" as="geometry">
            <mxPoint x="378" y="183.5" as="sourcePoint" />
            <mxPoint x="430" y="226.5" as="targetPoint" />
          </mxGeometry>
        </mxCell>
        <mxCell id="BBi84ixBotoM4hK3SIDS-11" value="T" style="text;html=1;align=center;verticalAlign=middle;whiteSpace=wrap;rounded=0;fontSize=20;" parent="WIyWlLk6GJQsqaUBKTNV-1" vertex="1">
          <mxGeometry x="620" y="280" width="30" height="30" as="geometry" />
        </mxCell>
        <mxCell id="BBi84ixBotoM4hK3SIDS-13" value="firstRadius = secRadious" style="text;html=1;align=center;verticalAlign=middle;whiteSpace=wrap;rounded=0;fontSize=20;" parent="WIyWlLk6GJQsqaUBKTNV-1" vertex="1">
          <mxGeometry x="510" y="240" width="260" height="30" as="geometry" />
        </mxCell>
        <mxCell id="BBi84ixBotoM4hK3SIDS-15" value="" style="endArrow=classic;html=1;rounded=0;exitX=1;exitY=1;exitDx=0;exitDy=0;entryX=0.5;entryY=0;entryDx=0;entryDy=0;fontSize=20;" parent="WIyWlLk6GJQsqaUBKTNV-1" edge="1">
          <mxGeometry width="50" height="50" relative="1" as="geometry">
            <mxPoint x="434" y="270" as="sourcePoint" />
            <mxPoint x="305" y="310" as="targetPoint" />
          </mxGeometry>
        </mxCell>
        <mxCell id="BBi84ixBotoM4hK3SIDS-17" value="F" style="text;html=1;align=center;verticalAlign=middle;whiteSpace=wrap;rounded=0;fontSize=20;" parent="WIyWlLk6GJQsqaUBKTNV-1" vertex="1">
          <mxGeometry x="360" y="260" width="30" height="30" as="geometry" />
        </mxCell>
        <mxCell id="BBi84ixBotoM4hK3SIDS-20" value="6" style="ellipse;whiteSpace=wrap;html=1;fontStyle=1;fontSize=20;" parent="WIyWlLk6GJQsqaUBKTNV-1" vertex="1">
          <mxGeometry x="264" y="310" width="70" height="60" as="geometry" />
        </mxCell>
        <mxCell id="BBi84ixBotoM4hK3SIDS-21" value="" style="endArrow=classic;html=1;rounded=0;exitX=1;exitY=0.5;exitDx=0;exitDy=0;fontSize=20;" parent="WIyWlLk6GJQsqaUBKTNV-1" source="BBi84ixBotoM4hK3SIDS-20" edge="1">
          <mxGeometry width="50" height="50" relative="1" as="geometry">
            <mxPoint x="334" y="330" as="sourcePoint" />
            <mxPoint x="410" y="420" as="targetPoint" />
          </mxGeometry>
        </mxCell>
        <mxCell id="BBi84ixBotoM4hK3SIDS-22" value="" style="endArrow=classic;html=1;rounded=0;exitX=1;exitY=0.5;exitDx=0;exitDy=0;fontSize=20;" parent="WIyWlLk6GJQsqaUBKTNV-1" edge="1">
          <mxGeometry width="50" height="50" relative="1" as="geometry">
            <mxPoint x="264" y="340" as="sourcePoint" />
            <mxPoint x="200" y="420" as="targetPoint" />
          </mxGeometry>
        </mxCell>
        <mxCell id="BBi84ixBotoM4hK3SIDS-23" value="T" style="text;html=1;align=center;verticalAlign=middle;whiteSpace=wrap;rounded=0;fontSize=20;" parent="WIyWlLk6GJQsqaUBKTNV-1" vertex="1">
          <mxGeometry x="380" y="360" width="30" height="30" as="geometry" />
        </mxCell>
        <mxCell id="BBi84ixBotoM4hK3SIDS-24" value="F" style="text;html=1;align=center;verticalAlign=middle;whiteSpace=wrap;rounded=0;fontSize=20;" parent="WIyWlLk6GJQsqaUBKTNV-1" vertex="1">
          <mxGeometry x="190" y="360" width="30" height="30" as="geometry" />
        </mxCell>
        <mxCell id="BBi84ixBotoM4hK3SIDS-27" value="firstRadius &amp;lt; secRadious" style="text;html=1;align=center;verticalAlign=middle;whiteSpace=wrap;rounded=0;fontSize=20;" parent="WIyWlLk6GJQsqaUBKTNV-1" vertex="1">
          <mxGeometry x="340" y="320" width="240" height="30" as="geometry" />
        </mxCell>
        <mxCell id="BBi84ixBotoM4hK3SIDS-38" value="distance &amp;gt; 0" style="text;html=1;align=center;verticalAlign=middle;whiteSpace=wrap;rounded=0;fontSize=20;" parent="WIyWlLk6GJQsqaUBKTNV-1" vertex="1">
          <mxGeometry x="-150" y="320" width="150" height="30" as="geometry" />
        </mxCell>
        <mxCell id="BBi84ixBotoM4hK3SIDS-39" value="7" style="ellipse;whiteSpace=wrap;html=1;fontStyle=1;fontSize=20;" parent="WIyWlLk6GJQsqaUBKTNV-1" vertex="1">
          <mxGeometry x="390" y="420" width="70" height="50" as="geometry" />
        </mxCell>
        <mxCell id="BBi84ixBotoM4hK3SIDS-40" value="8" style="ellipse;whiteSpace=wrap;html=1;fontStyle=1;fontSize=20;" parent="WIyWlLk6GJQsqaUBKTNV-1" vertex="1">
          <mxGeometry x="170" y="420" width="70" height="50" as="geometry" />
        </mxCell>
        <mxCell id="BBi84ixBotoM4hK3SIDS-41" value="9" style="ellipse;whiteSpace=wrap;html=1;fontStyle=1;fontSize=20;" parent="WIyWlLk6GJQsqaUBKTNV-1" vertex="1">
          <mxGeometry x="170" y="510" width="70" height="50" as="geometry" />
        </mxCell>
        <mxCell id="BBi84ixBotoM4hK3SIDS-42" value="" style="endArrow=classic;html=1;rounded=0;exitX=1;exitY=0.5;exitDx=0;exitDy=0;fontSize=20;" parent="WIyWlLk6GJQsqaUBKTNV-1" target="BBi84ixBotoM4hK3SIDS-41" edge="1">
          <mxGeometry width="50" height="50" relative="1" as="geometry">
            <mxPoint x="204" y="470" as="sourcePoint" />
            <mxPoint x="140" y="550" as="targetPoint" />
          </mxGeometry>
        </mxCell>
        <mxCell id="BBi84ixBotoM4hK3SIDS-43" value="10" style="ellipse;whiteSpace=wrap;html=1;fontStyle=1;fontSize=20;" parent="WIyWlLk6GJQsqaUBKTNV-1" vertex="1">
          <mxGeometry x="10" y="310" width="70" height="50" as="geometry" />
        </mxCell>
        <mxCell id="BBi84ixBotoM4hK3SIDS-44" value="" style="endArrow=classic;html=1;rounded=0;exitX=0;exitY=0.5;exitDx=0;exitDy=0;entryX=0.5;entryY=0;entryDx=0;entryDy=0;fontSize=20;" parent="WIyWlLk6GJQsqaUBKTNV-1" source="BBi84ixBotoM4hK3SIDS-3" target="BBi84ixBotoM4hK3SIDS-43" edge="1">
          <mxGeometry width="50" height="50" relative="1" as="geometry">
            <mxPoint x="360" y="400" as="sourcePoint" />
            <mxPoint x="110" y="600" as="targetPoint" />
            <Array as="points">
              <mxPoint x="45" y="170" />
            </Array>
          </mxGeometry>
        </mxCell>
        <mxCell id="BBi84ixBotoM4hK3SIDS-48" value="" style="endArrow=classic;html=1;rounded=0;exitX=1;exitY=1;exitDx=0;exitDy=0;fontSize=20;entryX=0.5;entryY=0;entryDx=0;entryDy=0;" parent="WIyWlLk6GJQsqaUBKTNV-1" source="BBi84ixBotoM4hK3SIDS-43" target="BBi84ixBotoM4hK3SIDS-52" edge="1">
          <mxGeometry width="50" height="50" relative="1" as="geometry">
            <mxPoint x="350" y="680" as="sourcePoint" />
            <mxPoint x="290" y="760" as="targetPoint" />
          </mxGeometry>
        </mxCell>
        <mxCell id="BBi84ixBotoM4hK3SIDS-49" value="" style="endArrow=classic;html=1;rounded=0;exitX=0;exitY=1;exitDx=0;exitDy=0;entryX=0.5;entryY=0;entryDx=0;entryDy=0;fontSize=20;" parent="WIyWlLk6GJQsqaUBKTNV-1" source="BBi84ixBotoM4hK3SIDS-43" target="BBi84ixBotoM4hK3SIDS-53" edge="1">
          <mxGeometry width="50" height="50" relative="1" as="geometry">
            <mxPoint x="340" y="690" as="sourcePoint" />
            <mxPoint x="130" y="760" as="targetPoint" />
          </mxGeometry>
        </mxCell>
        <mxCell id="BBi84ixBotoM4hK3SIDS-50" value="T" style="text;html=1;align=center;verticalAlign=middle;whiteSpace=wrap;rounded=0;fontSize=20;" parent="WIyWlLk6GJQsqaUBKTNV-1" vertex="1">
          <mxGeometry x="40" y="410" width="30" height="30" as="geometry" />
        </mxCell>
        <mxCell id="BBi84ixBotoM4hK3SIDS-51" value="F" style="text;html=1;align=center;verticalAlign=middle;whiteSpace=wrap;rounded=0;fontSize=20;" parent="WIyWlLk6GJQsqaUBKTNV-1" vertex="1">
          <mxGeometry x="-80" y="420" width="30" height="30" as="geometry" />
        </mxCell>
        <mxCell id="BBi84ixBotoM4hK3SIDS-52" value="11" style="ellipse;whiteSpace=wrap;html=1;fontStyle=1;fontSize=20;" parent="WIyWlLk6GJQsqaUBKTNV-1" vertex="1">
          <mxGeometry x="75" y="510" width="70" height="50" as="geometry" />
        </mxCell>
        <mxCell id="BBi84ixBotoM4hK3SIDS-53" value="12" style="ellipse;whiteSpace=wrap;html=1;fontStyle=1;fontSize=20;" parent="WIyWlLk6GJQsqaUBKTNV-1" vertex="1">
          <mxGeometry x="-80" y="510" width="70" height="50" as="geometry" />
        </mxCell>
        <mxCell id="BBi84ixBotoM4hK3SIDS-54" value="" style="endArrow=classic;html=1;rounded=0;exitX=0;exitY=0.5;exitDx=0;exitDy=0;entryX=1;entryY=0.5;entryDx=0;entryDy=0;fontSize=20;" parent="WIyWlLk6GJQsqaUBKTNV-1" source="BBi84ixBotoM4hK3SIDS-52" target="BBi84ixBotoM4hK3SIDS-53" edge="1">
          <mxGeometry width="50" height="50" relative="1" as="geometry">
            <mxPoint x="140" y="390" as="sourcePoint" />
            <mxPoint x="190" y="340" as="targetPoint" />
          </mxGeometry>
        </mxCell>
        <mxCell id="BBi84ixBotoM4hK3SIDS-92" value="Bài 01" style="text;html=1;align=center;verticalAlign=middle;whiteSpace=wrap;rounded=0;fontStyle=1;fontSize=20;" parent="WIyWlLk6GJQsqaUBKTNV-1" vertex="1">
          <mxGeometry x="10" y="50" width="110" height="30" as="geometry" />
        </mxCell>
        <mxCell id="BBi84ixBotoM4hK3SIDS-277" value="1-3" style="ellipse;whiteSpace=wrap;html=1;fontStyle=1;fontSize=20;" parent="WIyWlLk6GJQsqaUBKTNV-1" vertex="1">
          <mxGeometry x="410" y="1100" width="70" height="50" as="geometry" />
        </mxCell>
        <mxCell id="BBi84ixBotoM4hK3SIDS-278" value="" style="endArrow=classic;html=1;rounded=0;exitX=0.5;exitY=1;exitDx=0;exitDy=0;fontSize=20;" parent="WIyWlLk6GJQsqaUBKTNV-1" source="BBi84ixBotoM4hK3SIDS-277" edge="1">
          <mxGeometry width="50" height="50" relative="1" as="geometry">
            <mxPoint x="480" y="1400" as="sourcePoint" />
            <mxPoint x="445" y="1200" as="targetPoint" />
          </mxGeometry>
        </mxCell>
        <mxCell id="BBi84ixBotoM4hK3SIDS-279" value="4.1" style="ellipse;whiteSpace=wrap;html=1;fontStyle=1;fontSize=20;" parent="WIyWlLk6GJQsqaUBKTNV-1" vertex="1">
          <mxGeometry x="410" y="1200" width="70" height="50" as="geometry" />
        </mxCell>
        <mxCell id="BBi84ixBotoM4hK3SIDS-280" value="x ==1" style="text;html=1;align=center;verticalAlign=middle;whiteSpace=wrap;rounded=0;fontSize=20;" parent="WIyWlLk6GJQsqaUBKTNV-1" vertex="1">
          <mxGeometry x="490" y="1210" width="80" height="30" as="geometry" />
        </mxCell>
        <mxCell id="BBi84ixBotoM4hK3SIDS-281" value="5" style="ellipse;whiteSpace=wrap;html=1;fontStyle=1;fontSize=20;" parent="WIyWlLk6GJQsqaUBKTNV-1" vertex="1">
          <mxGeometry x="510" y="1270" width="70" height="50" as="geometry" />
        </mxCell>
        <mxCell id="BBi84ixBotoM4hK3SIDS-282" value="T" style="text;html=1;align=center;verticalAlign=middle;whiteSpace=wrap;rounded=0;fontSize=20;" parent="WIyWlLk6GJQsqaUBKTNV-1" vertex="1">
          <mxGeometry x="500" y="1240" width="30" height="30" as="geometry" />
        </mxCell>
        <mxCell id="BBi84ixBotoM4hK3SIDS-283" value="" style="endArrow=classic;html=1;rounded=0;exitX=1;exitY=1;exitDx=0;exitDy=0;entryX=0;entryY=0;entryDx=0;entryDy=0;fontSize=20;" parent="WIyWlLk6GJQsqaUBKTNV-1" target="BBi84ixBotoM4hK3SIDS-281" edge="1">
          <mxGeometry width="50" height="50" relative="1" as="geometry">
            <mxPoint x="468" y="1243.5" as="sourcePoint" />
            <mxPoint x="520" y="1286.5" as="targetPoint" />
          </mxGeometry>
        </mxCell>
        <mxCell id="BBi84ixBotoM4hK3SIDS-285" value="" style="endArrow=classic;html=1;rounded=0;exitX=0;exitY=0.5;exitDx=0;exitDy=0;fontSize=20;" parent="WIyWlLk6GJQsqaUBKTNV-1" source="BBi84ixBotoM4hK3SIDS-279" edge="1">
          <mxGeometry width="50" height="50" relative="1" as="geometry">
            <mxPoint x="450" y="1460" as="sourcePoint" />
            <mxPoint x="280" y="1280" as="targetPoint" />
            <Array as="points" />
          </mxGeometry>
        </mxCell>
        <mxCell id="BBi84ixBotoM4hK3SIDS-286" value="Bài 02" style="text;html=1;align=center;verticalAlign=middle;whiteSpace=wrap;rounded=0;fontStyle=1;fontSize=20;" parent="WIyWlLk6GJQsqaUBKTNV-1" vertex="1">
          <mxGeometry x="190" y="1080" width="90" height="30" as="geometry" />
        </mxCell>
        <mxCell id="BBi84ixBotoM4hK3SIDS-287" style="edgeStyle=orthogonalEdgeStyle;rounded=0;orthogonalLoop=1;jettySize=auto;html=1;exitX=0.5;exitY=1;exitDx=0;exitDy=0;fontSize=20;" parent="WIyWlLk6GJQsqaUBKTNV-1" edge="1">
          <mxGeometry relative="1" as="geometry">
            <mxPoint x="620" y="1310" as="sourcePoint" />
            <mxPoint x="620" y="1310" as="targetPoint" />
          </mxGeometry>
        </mxCell>
        <mxCell id="BBi84ixBotoM4hK3SIDS-288" value="F" style="text;html=1;align=center;verticalAlign=middle;whiteSpace=wrap;rounded=0;fontSize=20;" parent="WIyWlLk6GJQsqaUBKTNV-1" vertex="1">
          <mxGeometry x="320" y="1220" width="30" height="30" as="geometry" />
        </mxCell>
        <mxCell id="BBi84ixBotoM4hK3SIDS-289" value="4.2" style="ellipse;whiteSpace=wrap;html=1;fontStyle=1;fontSize=20;" parent="WIyWlLk6GJQsqaUBKTNV-1" vertex="1">
          <mxGeometry x="220" y="1270" width="70" height="50" as="geometry" />
        </mxCell>
        <mxCell id="BBi84ixBotoM4hK3SIDS-290" value="" style="endArrow=classic;html=1;rounded=0;exitX=1;exitY=0.5;exitDx=0;exitDy=0;entryX=0;entryY=0.5;entryDx=0;entryDy=0;fontSize=20;" parent="WIyWlLk6GJQsqaUBKTNV-1" source="BBi84ixBotoM4hK3SIDS-289" target="BBi84ixBotoM4hK3SIDS-281" edge="1">
          <mxGeometry width="50" height="50" relative="1" as="geometry">
            <mxPoint x="640" y="1370" as="sourcePoint" />
            <mxPoint x="690" y="1320" as="targetPoint" />
          </mxGeometry>
        </mxCell>
        <mxCell id="BBi84ixBotoM4hK3SIDS-291" value="T" style="text;html=1;align=center;verticalAlign=middle;whiteSpace=wrap;rounded=0;fontSize=20;" parent="WIyWlLk6GJQsqaUBKTNV-1" vertex="1">
          <mxGeometry x="394" y="1260" width="30" height="30" as="geometry" />
        </mxCell>
        <mxCell id="BBi84ixBotoM4hK3SIDS-292" value="F" style="text;html=1;align=center;verticalAlign=middle;whiteSpace=wrap;rounded=0;fontSize=20;" parent="WIyWlLk6GJQsqaUBKTNV-1" vertex="1">
          <mxGeometry x="160" y="1330" width="30" height="30" as="geometry" />
        </mxCell>
        <mxCell id="BBi84ixBotoM4hK3SIDS-293" value="" style="endArrow=classic;html=1;rounded=0;exitX=0;exitY=1;exitDx=0;exitDy=0;fontSize=20;" parent="WIyWlLk6GJQsqaUBKTNV-1" source="BBi84ixBotoM4hK3SIDS-289" edge="1">
          <mxGeometry width="50" height="50" relative="1" as="geometry">
            <mxPoint x="640" y="1370" as="sourcePoint" />
            <mxPoint x="180" y="1390" as="targetPoint" />
          </mxGeometry>
        </mxCell>
        <mxCell id="BBi84ixBotoM4hK3SIDS-294" value="x ==2" style="text;html=1;align=center;verticalAlign=middle;whiteSpace=wrap;rounded=0;fontSize=20;" parent="WIyWlLk6GJQsqaUBKTNV-1" vertex="1">
          <mxGeometry x="150" y="1280" width="60" height="30" as="geometry" />
        </mxCell>
        <mxCell id="BBi84ixBotoM4hK3SIDS-295" value="6" style="ellipse;whiteSpace=wrap;html=1;fontStyle=1;fontSize=20;" parent="WIyWlLk6GJQsqaUBKTNV-1" vertex="1">
          <mxGeometry x="145" y="1390" width="70" height="60" as="geometry" />
        </mxCell>
        <mxCell id="BBi84ixBotoM4hK3SIDS-296" value="7" style="ellipse;whiteSpace=wrap;html=1;fontStyle=1;fontSize=20;" parent="WIyWlLk6GJQsqaUBKTNV-1" vertex="1">
          <mxGeometry x="145" y="1500" width="70" height="50" as="geometry" />
        </mxCell>
        <mxCell id="BBi84ixBotoM4hK3SIDS-297" value="" style="endArrow=classic;html=1;rounded=0;entryX=0.5;entryY=0;entryDx=0;entryDy=0;exitX=0.5;exitY=1;exitDx=0;exitDy=0;fontSize=20;" parent="WIyWlLk6GJQsqaUBKTNV-1" source="BBi84ixBotoM4hK3SIDS-295" target="BBi84ixBotoM4hK3SIDS-296" edge="1">
          <mxGeometry width="50" height="50" relative="1" as="geometry">
            <mxPoint x="180" y="1460" as="sourcePoint" />
            <mxPoint x="5" y="1570" as="targetPoint" />
          </mxGeometry>
        </mxCell>
        <mxCell id="BBi84ixBotoM4hK3SIDS-298" value="" style="endArrow=classic;html=1;rounded=0;entryX=0.5;entryY=0;entryDx=0;entryDy=0;fontSize=20;" parent="WIyWlLk6GJQsqaUBKTNV-1" edge="1">
          <mxGeometry width="50" height="50" relative="1" as="geometry">
            <mxPoint x="180" y="1550" as="sourcePoint" />
            <mxPoint x="180" y="1589.9999999999998" as="targetPoint" />
          </mxGeometry>
        </mxCell>
        <mxCell id="BBi84ixBotoM4hK3SIDS-299" value="8" style="ellipse;whiteSpace=wrap;html=1;fontStyle=1;fontSize=20;" parent="WIyWlLk6GJQsqaUBKTNV-1" vertex="1">
          <mxGeometry x="150" y="1590" width="70" height="50" as="geometry" />
        </mxCell>
        <mxCell id="BBi84ixBotoM4hK3SIDS-300" value="" style="endArrow=classic;html=1;rounded=0;exitX=1;exitY=1;exitDx=0;exitDy=0;fontSize=20;" parent="WIyWlLk6GJQsqaUBKTNV-1" source="BBi84ixBotoM4hK3SIDS-299" edge="1">
          <mxGeometry width="50" height="50" relative="1" as="geometry">
            <mxPoint x="330" y="1630" as="sourcePoint" />
            <mxPoint x="270" y="1710" as="targetPoint" />
          </mxGeometry>
        </mxCell>
        <mxCell id="BBi84ixBotoM4hK3SIDS-301" value="" style="endArrow=classic;html=1;rounded=0;exitX=0;exitY=1;exitDx=0;exitDy=0;entryX=0.5;entryY=0;entryDx=0;entryDy=0;fontSize=20;" parent="WIyWlLk6GJQsqaUBKTNV-1" source="BBi84ixBotoM4hK3SIDS-299" target="BBi84ixBotoM4hK3SIDS-305" edge="1">
          <mxGeometry width="50" height="50" relative="1" as="geometry">
            <mxPoint x="320" y="1640" as="sourcePoint" />
            <mxPoint x="110" y="1710" as="targetPoint" />
          </mxGeometry>
        </mxCell>
        <mxCell id="BBi84ixBotoM4hK3SIDS-302" value="T" style="text;html=1;align=center;verticalAlign=middle;whiteSpace=wrap;rounded=0;fontSize=20;" parent="WIyWlLk6GJQsqaUBKTNV-1" vertex="1">
          <mxGeometry x="244" y="1650" width="30" height="30" as="geometry" />
        </mxCell>
        <mxCell id="BBi84ixBotoM4hK3SIDS-303" value="F" style="text;html=1;align=center;verticalAlign=middle;whiteSpace=wrap;rounded=0;fontSize=20;" parent="WIyWlLk6GJQsqaUBKTNV-1" vertex="1">
          <mxGeometry x="90" y="1650" width="30" height="30" as="geometry" />
        </mxCell>
        <mxCell id="BBi84ixBotoM4hK3SIDS-304" value="9" style="ellipse;whiteSpace=wrap;html=1;fontStyle=1;fontSize=20;" parent="WIyWlLk6GJQsqaUBKTNV-1" vertex="1">
          <mxGeometry x="240" y="1710" width="70" height="50" as="geometry" />
        </mxCell>
        <mxCell id="BBi84ixBotoM4hK3SIDS-305" value="10-11" style="ellipse;whiteSpace=wrap;html=1;fontStyle=1;fontSize=20;" parent="WIyWlLk6GJQsqaUBKTNV-1" vertex="1">
          <mxGeometry x="60" y="1710" width="70" height="50" as="geometry" />
        </mxCell>
        <mxCell id="BBi84ixBotoM4hK3SIDS-306" value="" style="endArrow=classic;html=1;rounded=0;entryX=0.5;entryY=0;entryDx=0;entryDy=0;exitX=0.5;exitY=1;exitDx=0;exitDy=0;fontSize=20;" parent="WIyWlLk6GJQsqaUBKTNV-1" source="BBi84ixBotoM4hK3SIDS-305" edge="1">
          <mxGeometry width="50" height="50" relative="1" as="geometry">
            <mxPoint x="95" y="1770" as="sourcePoint" />
            <mxPoint x="95" y="1830.0000000000002" as="targetPoint" />
          </mxGeometry>
        </mxCell>
        <mxCell id="BBi84ixBotoM4hK3SIDS-307" value="y &amp;lt;= 10" style="text;html=1;align=center;verticalAlign=middle;whiteSpace=wrap;rounded=0;fontSize=20;" parent="WIyWlLk6GJQsqaUBKTNV-1" vertex="1">
          <mxGeometry x="230" y="1600" width="90" height="30" as="geometry" />
        </mxCell>
        <mxCell id="BBi84ixBotoM4hK3SIDS-308" value="z &amp;lt;5" style="text;html=1;align=center;verticalAlign=middle;whiteSpace=wrap;rounded=0;fontSize=20;" parent="WIyWlLk6GJQsqaUBKTNV-1" vertex="1">
          <mxGeometry x="139" y="1840" width="60" height="30" as="geometry" />
        </mxCell>
        <mxCell id="BBi84ixBotoM4hK3SIDS-309" value="12" style="ellipse;whiteSpace=wrap;html=1;fontStyle=1;fontSize=20;" parent="WIyWlLk6GJQsqaUBKTNV-1" vertex="1">
          <mxGeometry x="60" y="1830" width="70" height="50" as="geometry" />
        </mxCell>
        <mxCell id="BBi84ixBotoM4hK3SIDS-310" value="" style="endArrow=classic;html=1;rounded=0;exitX=1;exitY=1;exitDx=0;exitDy=0;fontSize=20;" parent="WIyWlLk6GJQsqaUBKTNV-1" source="BBi84ixBotoM4hK3SIDS-309" edge="1">
          <mxGeometry width="50" height="50" relative="1" as="geometry">
            <mxPoint x="240" y="1870" as="sourcePoint" />
            <mxPoint x="180" y="1950" as="targetPoint" />
          </mxGeometry>
        </mxCell>
        <mxCell id="BBi84ixBotoM4hK3SIDS-311" value="" style="endArrow=classic;html=1;rounded=0;exitX=0;exitY=1;exitDx=0;exitDy=0;entryX=0.5;entryY=0;entryDx=0;entryDy=0;fontSize=20;" parent="WIyWlLk6GJQsqaUBKTNV-1" source="BBi84ixBotoM4hK3SIDS-309" target="BBi84ixBotoM4hK3SIDS-315" edge="1">
          <mxGeometry width="50" height="50" relative="1" as="geometry">
            <mxPoint x="230" y="1880" as="sourcePoint" />
            <mxPoint x="20" y="1950" as="targetPoint" />
          </mxGeometry>
        </mxCell>
        <mxCell id="BBi84ixBotoM4hK3SIDS-312" value="T" style="text;html=1;align=center;verticalAlign=middle;whiteSpace=wrap;rounded=0;fontSize=20;" parent="WIyWlLk6GJQsqaUBKTNV-1" vertex="1">
          <mxGeometry x="154" y="1890" width="30" height="30" as="geometry" />
        </mxCell>
        <mxCell id="BBi84ixBotoM4hK3SIDS-313" value="F" style="text;html=1;align=center;verticalAlign=middle;whiteSpace=wrap;rounded=0;fontSize=20;" parent="WIyWlLk6GJQsqaUBKTNV-1" vertex="1">
          <mxGeometry x="20" y="1900" width="30" height="30" as="geometry" />
        </mxCell>
        <mxCell id="BBi84ixBotoM4hK3SIDS-314" value="13" style="ellipse;whiteSpace=wrap;html=1;fontStyle=1;fontSize=20;" parent="WIyWlLk6GJQsqaUBKTNV-1" vertex="1">
          <mxGeometry x="150" y="1940" width="70" height="50" as="geometry" />
        </mxCell>
        <mxCell id="BBi84ixBotoM4hK3SIDS-315" value="14" style="ellipse;whiteSpace=wrap;html=1;fontStyle=1;fontSize=20;" parent="WIyWlLk6GJQsqaUBKTNV-1" vertex="1">
          <mxGeometry y="1950" width="70" height="50" as="geometry" />
        </mxCell>
        <mxCell id="BBi84ixBotoM4hK3SIDS-316" value="15" style="ellipse;whiteSpace=wrap;html=1;fontStyle=1;fontSize=20;" parent="WIyWlLk6GJQsqaUBKTNV-1" vertex="1">
          <mxGeometry y="2050" width="70" height="50" as="geometry" />
        </mxCell>
        <mxCell id="BBi84ixBotoM4hK3SIDS-317" value="" style="endArrow=classic;html=1;rounded=0;entryX=0.5;entryY=0;entryDx=0;entryDy=0;fontSize=20;" parent="WIyWlLk6GJQsqaUBKTNV-1" target="BBi84ixBotoM4hK3SIDS-316" edge="1">
          <mxGeometry width="50" height="50" relative="1" as="geometry">
            <mxPoint x="35" y="2000" as="sourcePoint" />
            <mxPoint x="-140" y="2120" as="targetPoint" />
          </mxGeometry>
        </mxCell>
        <mxCell id="BBi84ixBotoM4hK3SIDS-331" value="Bài 03" style="text;html=1;align=center;verticalAlign=middle;whiteSpace=wrap;rounded=0;fontStyle=1;fontSize=20;" parent="WIyWlLk6GJQsqaUBKTNV-1" vertex="1">
          <mxGeometry x="1030" y="60" width="110" height="30" as="geometry" />
        </mxCell>
        <mxCell id="BBi84ixBotoM4hK3SIDS-334" value="1-4" style="ellipse;whiteSpace=wrap;html=1;fontStyle=1;fontSize=20;" parent="WIyWlLk6GJQsqaUBKTNV-1" vertex="1">
          <mxGeometry x="1400" y="80" width="90" height="70" as="geometry" />
        </mxCell>
        <mxCell id="BBi84ixBotoM4hK3SIDS-335" value="5" style="ellipse;whiteSpace=wrap;html=1;fontStyle=1;fontSize=20;" parent="WIyWlLk6GJQsqaUBKTNV-1" vertex="1">
          <mxGeometry x="1400" y="190" width="90" height="70" as="geometry" />
        </mxCell>
        <mxCell id="BBi84ixBotoM4hK3SIDS-336" value="" style="endArrow=classic;html=1;rounded=0;exitX=1;exitY=1;exitDx=0;exitDy=0;fontSize=20;fontStyle=1;entryX=0;entryY=0;entryDx=0;entryDy=0;" parent="WIyWlLk6GJQsqaUBKTNV-1" source="BBi84ixBotoM4hK3SIDS-335" edge="1">
          <mxGeometry width="50" height="50" relative="1" as="geometry">
            <mxPoint x="1580" y="310" as="sourcePoint" />
            <mxPoint x="1563.4630209225134" y="310.0332248969896" as="targetPoint" />
          </mxGeometry>
        </mxCell>
        <mxCell id="BBi84ixBotoM4hK3SIDS-337" value="" style="endArrow=classic;html=1;rounded=0;exitX=0;exitY=1;exitDx=0;exitDy=0;entryX=0.5;entryY=0;entryDx=0;entryDy=0;fontSize=20;fontStyle=1" parent="WIyWlLk6GJQsqaUBKTNV-1" source="BBi84ixBotoM4hK3SIDS-335" target="BBi84ixBotoM4hK3SIDS-354" edge="1">
          <mxGeometry width="50" height="50" relative="1" as="geometry">
            <mxPoint x="1570" y="320" as="sourcePoint" />
            <mxPoint x="1315" y="305" as="targetPoint" />
          </mxGeometry>
        </mxCell>
        <mxCell id="BBi84ixBotoM4hK3SIDS-338" value="T" style="text;html=1;align=center;verticalAlign=middle;whiteSpace=wrap;rounded=0;fontSize=20;fontStyle=1" parent="WIyWlLk6GJQsqaUBKTNV-1" vertex="1">
          <mxGeometry x="1540" y="250" width="30" height="30" as="geometry" />
        </mxCell>
        <mxCell id="BBi84ixBotoM4hK3SIDS-339" value="F" style="text;html=1;align=center;verticalAlign=middle;whiteSpace=wrap;rounded=0;fontSize=20;fontStyle=1" parent="WIyWlLk6GJQsqaUBKTNV-1" vertex="1">
          <mxGeometry x="1340" y="240" width="30" height="30" as="geometry" />
        </mxCell>
        <mxCell id="BBi84ixBotoM4hK3SIDS-342" value="" style="endArrow=classic;html=1;rounded=0;entryX=0.5;entryY=0;entryDx=0;entryDy=0;" parent="WIyWlLk6GJQsqaUBKTNV-1" target="BBi84ixBotoM4hK3SIDS-335" edge="1">
          <mxGeometry width="50" height="50" relative="1" as="geometry">
            <mxPoint x="1445" y="150" as="sourcePoint" />
            <mxPoint x="1100" y="320" as="targetPoint" />
          </mxGeometry>
        </mxCell>
        <mxCell id="BBi84ixBotoM4hK3SIDS-354" value="11" style="ellipse;whiteSpace=wrap;html=1;fontStyle=1;fontSize=20;" parent="WIyWlLk6GJQsqaUBKTNV-1" vertex="1">
          <mxGeometry x="1270" y="310" width="90" height="70" as="geometry" />
        </mxCell>
        <mxCell id="BBi84ixBotoM4hK3SIDS-355" value="" style="endArrow=classic;html=1;rounded=0;exitX=1;exitY=1;exitDx=0;exitDy=0;fontSize=20;fontStyle=1;entryX=0.284;entryY=0.014;entryDx=0;entryDy=0;entryPerimeter=0;" parent="WIyWlLk6GJQsqaUBKTNV-1" source="BBi84ixBotoM4hK3SIDS-354" target="BBi84ixBotoM4hK3SIDS-360" edge="1">
          <mxGeometry width="50" height="50" relative="1" as="geometry">
            <mxPoint x="1450" y="535" as="sourcePoint" />
            <mxPoint x="1390" y="615" as="targetPoint" />
          </mxGeometry>
        </mxCell>
        <mxCell id="BBi84ixBotoM4hK3SIDS-356" value="" style="endArrow=classic;html=1;rounded=0;exitX=0;exitY=1;exitDx=0;exitDy=0;entryX=0.5;entryY=0;entryDx=0;entryDy=0;fontSize=20;fontStyle=1" parent="WIyWlLk6GJQsqaUBKTNV-1" source="BBi84ixBotoM4hK3SIDS-354" target="BBi84ixBotoM4hK3SIDS-359" edge="1">
          <mxGeometry width="50" height="50" relative="1" as="geometry">
            <mxPoint x="1440" y="545" as="sourcePoint" />
            <mxPoint x="1230" y="615" as="targetPoint" />
          </mxGeometry>
        </mxCell>
        <mxCell id="BBi84ixBotoM4hK3SIDS-357" value="T" style="text;html=1;align=center;verticalAlign=middle;whiteSpace=wrap;rounded=0;fontSize=20;fontStyle=1" parent="WIyWlLk6GJQsqaUBKTNV-1" vertex="1">
          <mxGeometry x="1370" y="375" width="30" height="30" as="geometry" />
        </mxCell>
        <mxCell id="BBi84ixBotoM4hK3SIDS-358" value="F" style="text;html=1;align=center;verticalAlign=middle;whiteSpace=wrap;rounded=0;fontSize=20;fontStyle=1" parent="WIyWlLk6GJQsqaUBKTNV-1" vertex="1">
          <mxGeometry x="1205" y="370" width="30" height="30" as="geometry" />
        </mxCell>
        <mxCell id="BBi84ixBotoM4hK3SIDS-359" value="14" style="ellipse;whiteSpace=wrap;html=1;fontStyle=1;fontSize=20;" parent="WIyWlLk6GJQsqaUBKTNV-1" vertex="1">
          <mxGeometry x="1160" y="420" width="90" height="70" as="geometry" />
        </mxCell>
        <mxCell id="BBi84ixBotoM4hK3SIDS-360" value="12" style="ellipse;whiteSpace=wrap;html=1;fontStyle=1;fontSize=20;" parent="WIyWlLk6GJQsqaUBKTNV-1" vertex="1">
          <mxGeometry x="1350" y="420" width="90" height="70" as="geometry" />
        </mxCell>
        <mxCell id="BBi84ixBotoM4hK3SIDS-362" value="A &amp;gt; B" style="text;html=1;align=center;verticalAlign=middle;whiteSpace=wrap;rounded=0;fontSize=20;" parent="WIyWlLk6GJQsqaUBKTNV-1" vertex="1">
          <mxGeometry x="1510" y="210" width="100" height="30" as="geometry" />
        </mxCell>
        <mxCell id="BBi84ixBotoM4hK3SIDS-363" value="15" style="ellipse;whiteSpace=wrap;html=1;fontStyle=1;fontSize=20;" parent="WIyWlLk6GJQsqaUBKTNV-1" vertex="1">
          <mxGeometry x="1408" y="585" width="90" height="60" as="geometry" />
        </mxCell>
        <mxCell id="BBi84ixBotoM4hK3SIDS-364" value="16" style="ellipse;whiteSpace=wrap;html=1;fontStyle=1;fontSize=20;" parent="WIyWlLk6GJQsqaUBKTNV-1" vertex="1">
          <mxGeometry x="1408" y="700" width="90" height="60" as="geometry" />
        </mxCell>
        <mxCell id="BBi84ixBotoM4hK3SIDS-365" value="" style="endArrow=classic;html=1;rounded=0;entryX=0.5;entryY=0;entryDx=0;entryDy=0;fontSize=20;fontStyle=1;exitX=0.5;exitY=1;exitDx=0;exitDy=0;" parent="WIyWlLk6GJQsqaUBKTNV-1" source="BBi84ixBotoM4hK3SIDS-363" target="BBi84ixBotoM4hK3SIDS-364" edge="1">
          <mxGeometry width="50" height="50" relative="1" as="geometry">
            <mxPoint x="1500" y="760" as="sourcePoint" />
            <mxPoint x="1330" y="880" as="targetPoint" />
          </mxGeometry>
        </mxCell>
        <mxCell id="BBi84ixBotoM4hK3SIDS-366" value="" style="endArrow=classic;html=1;rounded=0;entryX=0;entryY=0.5;entryDx=0;entryDy=0;exitX=0.5;exitY=1;exitDx=0;exitDy=0;" parent="WIyWlLk6GJQsqaUBKTNV-1" source="BBi84ixBotoM4hK3SIDS-359" target="BBi84ixBotoM4hK3SIDS-363" edge="1">
          <mxGeometry width="50" height="50" relative="1" as="geometry">
            <mxPoint x="1470" y="550" as="sourcePoint" />
            <mxPoint x="1520" y="500" as="targetPoint" />
          </mxGeometry>
        </mxCell>
        <mxCell id="BBi84ixBotoM4hK3SIDS-367" value="" style="endArrow=classic;html=1;rounded=0;entryX=0;entryY=0;entryDx=0;entryDy=0;exitX=0.5;exitY=1;exitDx=0;exitDy=0;" parent="WIyWlLk6GJQsqaUBKTNV-1" source="BBi84ixBotoM4hK3SIDS-360" target="BBi84ixBotoM4hK3SIDS-363" edge="1">
          <mxGeometry width="50" height="50" relative="1" as="geometry">
            <mxPoint x="1470" y="550" as="sourcePoint" />
            <mxPoint x="1520" y="500" as="targetPoint" />
            <Array as="points" />
          </mxGeometry>
        </mxCell>
        <mxCell id="BBi84ixBotoM4hK3SIDS-368" value="6" style="ellipse;whiteSpace=wrap;html=1;fontStyle=1;fontSize=20;" parent="WIyWlLk6GJQsqaUBKTNV-1" vertex="1">
          <mxGeometry x="1530" y="310" width="90" height="70" as="geometry" />
        </mxCell>
        <mxCell id="BBi84ixBotoM4hK3SIDS-369" value="" style="endArrow=classic;html=1;rounded=0;exitX=1;exitY=1;exitDx=0;exitDy=0;fontSize=20;fontStyle=1;entryX=0.284;entryY=0.014;entryDx=0;entryDy=0;entryPerimeter=0;" parent="WIyWlLk6GJQsqaUBKTNV-1" source="BBi84ixBotoM4hK3SIDS-368" target="BBi84ixBotoM4hK3SIDS-374" edge="1">
          <mxGeometry width="50" height="50" relative="1" as="geometry">
            <mxPoint x="1710" y="370" as="sourcePoint" />
            <mxPoint x="1650" y="450" as="targetPoint" />
          </mxGeometry>
        </mxCell>
        <mxCell id="BBi84ixBotoM4hK3SIDS-370" value="" style="endArrow=classic;html=1;rounded=0;exitX=0;exitY=1;exitDx=0;exitDy=0;entryX=0.5;entryY=0;entryDx=0;entryDy=0;fontSize=20;fontStyle=1" parent="WIyWlLk6GJQsqaUBKTNV-1" source="BBi84ixBotoM4hK3SIDS-368" target="BBi84ixBotoM4hK3SIDS-373" edge="1">
          <mxGeometry width="50" height="50" relative="1" as="geometry">
            <mxPoint x="1700" y="380" as="sourcePoint" />
            <mxPoint x="1490" y="450" as="targetPoint" />
          </mxGeometry>
        </mxCell>
        <mxCell id="BBi84ixBotoM4hK3SIDS-371" value="T" style="text;html=1;align=center;verticalAlign=middle;whiteSpace=wrap;rounded=0;fontSize=20;fontStyle=1" parent="WIyWlLk6GJQsqaUBKTNV-1" vertex="1">
          <mxGeometry x="1658" y="360" width="30" height="30" as="geometry" />
        </mxCell>
        <mxCell id="BBi84ixBotoM4hK3SIDS-372" value="F" style="text;html=1;align=center;verticalAlign=middle;whiteSpace=wrap;rounded=0;fontSize=20;fontStyle=1" parent="WIyWlLk6GJQsqaUBKTNV-1" vertex="1">
          <mxGeometry x="1480" y="370" width="30" height="30" as="geometry" />
        </mxCell>
        <mxCell id="BBi84ixBotoM4hK3SIDS-373" value="9" style="ellipse;whiteSpace=wrap;html=1;fontStyle=1;fontSize=20;" parent="WIyWlLk6GJQsqaUBKTNV-1" vertex="1">
          <mxGeometry x="1480" y="420" width="90" height="70" as="geometry" />
        </mxCell>
        <mxCell id="BBi84ixBotoM4hK3SIDS-374" value="7" style="ellipse;whiteSpace=wrap;html=1;fontStyle=1;fontSize=20;" parent="WIyWlLk6GJQsqaUBKTNV-1" vertex="1">
          <mxGeometry x="1640" y="420" width="90" height="70" as="geometry" />
        </mxCell>
        <mxCell id="BBi84ixBotoM4hK3SIDS-375" value="" style="endArrow=classic;html=1;rounded=0;entryX=0.5;entryY=0;entryDx=0;entryDy=0;exitX=0.5;exitY=1;exitDx=0;exitDy=0;" parent="WIyWlLk6GJQsqaUBKTNV-1" source="BBi84ixBotoM4hK3SIDS-373" target="BBi84ixBotoM4hK3SIDS-363" edge="1">
          <mxGeometry width="50" height="50" relative="1" as="geometry">
            <mxPoint x="1470" y="550" as="sourcePoint" />
            <mxPoint x="1520" y="500" as="targetPoint" />
          </mxGeometry>
        </mxCell>
        <mxCell id="BBi84ixBotoM4hK3SIDS-376" value="" style="endArrow=classic;html=1;rounded=0;entryX=1;entryY=0.5;entryDx=0;entryDy=0;exitX=0.5;exitY=1;exitDx=0;exitDy=0;" parent="WIyWlLk6GJQsqaUBKTNV-1" source="BBi84ixBotoM4hK3SIDS-374" target="BBi84ixBotoM4hK3SIDS-363" edge="1">
          <mxGeometry width="50" height="50" relative="1" as="geometry">
            <mxPoint x="1470" y="550" as="sourcePoint" />
            <mxPoint x="1520" y="500" as="targetPoint" />
          </mxGeometry>
        </mxCell>
        <mxCell id="BBi84ixBotoM4hK3SIDS-377" value="A &amp;gt;C" style="text;html=1;align=center;verticalAlign=middle;whiteSpace=wrap;rounded=0;fontSize=20;" parent="WIyWlLk6GJQsqaUBKTNV-1" vertex="1">
          <mxGeometry x="1630" y="330" width="100" height="30" as="geometry" />
        </mxCell>
        <mxCell id="BBi84ixBotoM4hK3SIDS-378" value="Bài 04" style="text;html=1;align=center;verticalAlign=middle;whiteSpace=wrap;rounded=0;fontStyle=1;fontSize=20;" parent="WIyWlLk6GJQsqaUBKTNV-1" vertex="1">
          <mxGeometry x="1060" y="970" width="110" height="30" as="geometry" />
        </mxCell>
        <mxCell id="BBi84ixBotoM4hK3SIDS-411" value="1-3" style="ellipse;whiteSpace=wrap;html=1;fontStyle=1;fontSize=20;" parent="WIyWlLk6GJQsqaUBKTNV-1" vertex="1">
          <mxGeometry x="1300" y="1010" width="90" height="60" as="geometry" />
        </mxCell>
        <mxCell id="BBi84ixBotoM4hK3SIDS-418" value="a &amp;gt; 0" style="text;html=1;align=center;verticalAlign=middle;whiteSpace=wrap;rounded=0;fontSize=20;" parent="WIyWlLk6GJQsqaUBKTNV-1" vertex="1">
          <mxGeometry x="1400" y="1130" width="100" height="30" as="geometry" />
        </mxCell>
        <mxCell id="BBi84ixBotoM4hK3SIDS-419" value="4.1" style="ellipse;whiteSpace=wrap;html=1;fontStyle=1;fontSize=20;" parent="WIyWlLk6GJQsqaUBKTNV-1" vertex="1">
          <mxGeometry x="1300" y="1110" width="90" height="70" as="geometry" />
        </mxCell>
        <mxCell id="BBi84ixBotoM4hK3SIDS-421" value="" style="endArrow=classic;html=1;rounded=0;exitX=0;exitY=1;exitDx=0;exitDy=0;entryX=0.5;entryY=0;entryDx=0;entryDy=0;fontSize=20;fontStyle=1" parent="WIyWlLk6GJQsqaUBKTNV-1" source="BBi84ixBotoM4hK3SIDS-419" target="BBi84ixBotoM4hK3SIDS-424" edge="1">
          <mxGeometry width="50" height="50" relative="1" as="geometry">
            <mxPoint x="1470" y="1180" as="sourcePoint" />
            <mxPoint x="1260" y="1250" as="targetPoint" />
          </mxGeometry>
        </mxCell>
        <mxCell id="BBi84ixBotoM4hK3SIDS-422" value="T" style="text;html=1;align=center;verticalAlign=middle;whiteSpace=wrap;rounded=0;fontSize=20;fontStyle=1" parent="WIyWlLk6GJQsqaUBKTNV-1" vertex="1">
          <mxGeometry x="1428" y="1160" width="30" height="30" as="geometry" />
        </mxCell>
        <mxCell id="BBi84ixBotoM4hK3SIDS-423" value="F" style="text;html=1;align=center;verticalAlign=middle;whiteSpace=wrap;rounded=0;fontSize=20;fontStyle=1" parent="WIyWlLk6GJQsqaUBKTNV-1" vertex="1">
          <mxGeometry x="1250" y="1150" width="30" height="30" as="geometry" />
        </mxCell>
        <mxCell id="BBi84ixBotoM4hK3SIDS-424" value="7" style="ellipse;whiteSpace=wrap;html=1;fontStyle=1;fontSize=20;" parent="WIyWlLk6GJQsqaUBKTNV-1" vertex="1">
          <mxGeometry x="1180" y="1210" width="90" height="70" as="geometry" />
        </mxCell>
        <mxCell id="BBi84ixBotoM4hK3SIDS-426" value="" style="endArrow=classic;html=1;rounded=0;exitX=0.5;exitY=1;exitDx=0;exitDy=0;" parent="WIyWlLk6GJQsqaUBKTNV-1" source="BBi84ixBotoM4hK3SIDS-411" target="BBi84ixBotoM4hK3SIDS-419" edge="1">
          <mxGeometry width="50" height="50" relative="1" as="geometry">
            <mxPoint x="1225" y="1090" as="sourcePoint" />
            <mxPoint x="880" y="1210" as="targetPoint" />
          </mxGeometry>
        </mxCell>
        <mxCell id="BBi84ixBotoM4hK3SIDS-427" value="4.2" style="ellipse;whiteSpace=wrap;html=1;fontStyle=1;fontSize=20;" parent="WIyWlLk6GJQsqaUBKTNV-1" vertex="1">
          <mxGeometry x="1408" y="1210" width="90" height="70" as="geometry" />
        </mxCell>
        <mxCell id="BBi84ixBotoM4hK3SIDS-428" value="" style="endArrow=classic;html=1;rounded=0;exitX=1;exitY=1;exitDx=0;exitDy=0;fontSize=20;fontStyle=1;entryX=0.284;entryY=0.014;entryDx=0;entryDy=0;entryPerimeter=0;" parent="WIyWlLk6GJQsqaUBKTNV-1" source="BBi84ixBotoM4hK3SIDS-427" edge="1">
          <mxGeometry width="50" height="50" relative="1" as="geometry">
            <mxPoint x="1590" y="1290" as="sourcePoint" />
            <mxPoint x="1575.56" y="1330.98" as="targetPoint" />
          </mxGeometry>
        </mxCell>
        <mxCell id="BBi84ixBotoM4hK3SIDS-429" value="" style="endArrow=classic;html=1;rounded=0;exitX=-0.004;exitY=0.612;exitDx=0;exitDy=0;entryX=1.011;entryY=0.602;entryDx=0;entryDy=0;fontSize=20;fontStyle=1;entryPerimeter=0;exitPerimeter=0;" parent="WIyWlLk6GJQsqaUBKTNV-1" source="BBi84ixBotoM4hK3SIDS-427" target="BBi84ixBotoM4hK3SIDS-424" edge="1">
          <mxGeometry width="50" height="50" relative="1" as="geometry">
            <mxPoint x="1580" y="1300" as="sourcePoint" />
            <mxPoint x="1370" y="1370" as="targetPoint" />
          </mxGeometry>
        </mxCell>
        <mxCell id="BBi84ixBotoM4hK3SIDS-430" value="T" style="text;html=1;align=center;verticalAlign=middle;whiteSpace=wrap;rounded=0;fontSize=20;fontStyle=1" parent="WIyWlLk6GJQsqaUBKTNV-1" vertex="1">
          <mxGeometry x="1538" y="1280" width="30" height="30" as="geometry" />
        </mxCell>
        <mxCell id="BBi84ixBotoM4hK3SIDS-431" value="F" style="text;html=1;align=center;verticalAlign=middle;whiteSpace=wrap;rounded=0;fontSize=20;fontStyle=1" parent="WIyWlLk6GJQsqaUBKTNV-1" vertex="1">
          <mxGeometry x="1340" y="1220" width="30" height="30" as="geometry" />
        </mxCell>
        <mxCell id="BBi84ixBotoM4hK3SIDS-434" value="" style="endArrow=classic;html=1;rounded=0;exitX=0.796;exitY=0.917;exitDx=0;exitDy=0;exitPerimeter=0;" parent="WIyWlLk6GJQsqaUBKTNV-1" source="BBi84ixBotoM4hK3SIDS-419" target="BBi84ixBotoM4hK3SIDS-427" edge="1">
          <mxGeometry width="50" height="50" relative="1" as="geometry">
            <mxPoint x="1455" y="1180" as="sourcePoint" />
            <mxPoint x="1110" y="1300" as="targetPoint" />
          </mxGeometry>
        </mxCell>
        <mxCell id="BBi84ixBotoM4hK3SIDS-435" value="4.3" style="ellipse;whiteSpace=wrap;html=1;fontStyle=1;fontSize=20;" parent="WIyWlLk6GJQsqaUBKTNV-1" vertex="1">
          <mxGeometry x="1538" y="1330" width="90" height="70" as="geometry" />
        </mxCell>
        <mxCell id="BBi84ixBotoM4hK3SIDS-436" value="" style="endArrow=classic;html=1;rounded=0;exitX=1;exitY=1;exitDx=0;exitDy=0;fontSize=20;fontStyle=1;entryX=0.284;entryY=0.014;entryDx=0;entryDy=0;entryPerimeter=0;" parent="WIyWlLk6GJQsqaUBKTNV-1" source="BBi84ixBotoM4hK3SIDS-435" target="BBi84ixBotoM4hK3SIDS-441" edge="1">
          <mxGeometry width="50" height="50" relative="1" as="geometry">
            <mxPoint x="1728" y="1510" as="sourcePoint" />
            <mxPoint x="1668" y="1590" as="targetPoint" />
          </mxGeometry>
        </mxCell>
        <mxCell id="BBi84ixBotoM4hK3SIDS-437" value="" style="endArrow=classic;html=1;rounded=0;exitX=0.574;exitY=1.021;exitDx=0;exitDy=0;entryX=0.5;entryY=0;entryDx=0;entryDy=0;fontSize=20;fontStyle=1;exitPerimeter=0;" parent="WIyWlLk6GJQsqaUBKTNV-1" source="BBi84ixBotoM4hK3SIDS-441" edge="1">
          <mxGeometry width="50" height="50" relative="1" as="geometry">
            <mxPoint x="1718" y="1520" as="sourcePoint" />
            <mxPoint x="1705" y="1530" as="targetPoint" />
          </mxGeometry>
        </mxCell>
        <mxCell id="BBi84ixBotoM4hK3SIDS-438" value="T" style="text;html=1;align=center;verticalAlign=middle;whiteSpace=wrap;rounded=0;fontSize=20;fontStyle=1" parent="WIyWlLk6GJQsqaUBKTNV-1" vertex="1">
          <mxGeometry x="1610" y="1405" width="30" height="30" as="geometry" />
        </mxCell>
        <mxCell id="BBi84ixBotoM4hK3SIDS-439" value="F" style="text;html=1;align=center;verticalAlign=middle;whiteSpace=wrap;rounded=0;fontSize=20;fontStyle=1" parent="WIyWlLk6GJQsqaUBKTNV-1" vertex="1">
          <mxGeometry x="1420" y="1290" width="30" height="30" as="geometry" />
        </mxCell>
        <mxCell id="BBi84ixBotoM4hK3SIDS-441" value="5" style="ellipse;whiteSpace=wrap;html=1;fontStyle=1;fontSize=20;" parent="WIyWlLk6GJQsqaUBKTNV-1" vertex="1">
          <mxGeometry x="1654" y="1420" width="90" height="70" as="geometry" />
        </mxCell>
        <mxCell id="BBi84ixBotoM4hK3SIDS-442" value="" style="endArrow=classic;html=1;rounded=0;entryX=1;entryY=1;entryDx=0;entryDy=0;" parent="WIyWlLk6GJQsqaUBKTNV-1" target="BBi84ixBotoM4hK3SIDS-424" edge="1">
          <mxGeometry width="50" height="50" relative="1" as="geometry">
            <mxPoint x="1540" y="1360" as="sourcePoint" />
            <mxPoint x="1248" y="1520" as="targetPoint" />
          </mxGeometry>
        </mxCell>
        <mxCell id="BBi84ixBotoM4hK3SIDS-443" value="b &amp;gt; 0" style="text;html=1;align=center;verticalAlign=middle;whiteSpace=wrap;rounded=0;fontSize=20;" parent="WIyWlLk6GJQsqaUBKTNV-1" vertex="1">
          <mxGeometry x="1510" y="1220" width="100" height="30" as="geometry" />
        </mxCell>
        <mxCell id="BBi84ixBotoM4hK3SIDS-444" value="c &amp;gt; 0" style="text;html=1;align=center;verticalAlign=middle;whiteSpace=wrap;rounded=0;fontSize=20;" parent="WIyWlLk6GJQsqaUBKTNV-1" vertex="1">
          <mxGeometry x="1650" y="1350" width="100" height="30" as="geometry" />
        </mxCell>
        <mxCell id="BBi84ixBotoM4hK3SIDS-445" value="8" style="ellipse;whiteSpace=wrap;html=1;fontStyle=1;fontSize=20;" parent="WIyWlLk6GJQsqaUBKTNV-1" vertex="1">
          <mxGeometry x="1660" y="1530" width="90" height="70" as="geometry" />
        </mxCell>
        <mxCell id="BBi84ixBotoM4hK3SIDS-446" value="" style="endArrow=classic;html=1;rounded=0;exitX=1;exitY=1;exitDx=0;exitDy=0;fontSize=20;fontStyle=1;entryX=0.284;entryY=0.014;entryDx=0;entryDy=0;entryPerimeter=0;" parent="WIyWlLk6GJQsqaUBKTNV-1" source="BBi84ixBotoM4hK3SIDS-445" target="BBi84ixBotoM4hK3SIDS-451" edge="1">
          <mxGeometry width="50" height="50" relative="1" as="geometry">
            <mxPoint x="1840" y="1590" as="sourcePoint" />
            <mxPoint x="1780" y="1670" as="targetPoint" />
          </mxGeometry>
        </mxCell>
        <mxCell id="BBi84ixBotoM4hK3SIDS-447" value="" style="endArrow=classic;html=1;rounded=0;exitX=0.5;exitY=1;exitDx=0;exitDy=0;entryX=0;entryY=0;entryDx=0;entryDy=0;fontSize=20;fontStyle=1;" parent="WIyWlLk6GJQsqaUBKTNV-1" source="BBi84ixBotoM4hK3SIDS-445" target="BBi84ixBotoM4hK3SIDS-464" edge="1">
          <mxGeometry width="50" height="50" relative="1" as="geometry">
            <mxPoint x="1830" y="1600" as="sourcePoint" />
            <mxPoint x="1585" y="1630" as="targetPoint" />
          </mxGeometry>
        </mxCell>
        <mxCell id="BBi84ixBotoM4hK3SIDS-448" value="T" style="text;html=1;align=center;verticalAlign=middle;whiteSpace=wrap;rounded=0;fontSize=20;fontStyle=1" parent="WIyWlLk6GJQsqaUBKTNV-1" vertex="1">
          <mxGeometry x="1788" y="1580" width="30" height="30" as="geometry" />
        </mxCell>
        <mxCell id="BBi84ixBotoM4hK3SIDS-449" value="F" style="text;html=1;align=center;verticalAlign=middle;whiteSpace=wrap;rounded=0;fontSize=20;fontStyle=1" parent="WIyWlLk6GJQsqaUBKTNV-1" vertex="1">
          <mxGeometry x="1710" y="1660" width="30" height="30" as="geometry" />
        </mxCell>
        <mxCell id="BBi84ixBotoM4hK3SIDS-451" value="9" style="ellipse;whiteSpace=wrap;html=1;fontStyle=1;fontSize=20;" parent="WIyWlLk6GJQsqaUBKTNV-1" vertex="1">
          <mxGeometry x="1800" y="1630" width="90" height="70" as="geometry" />
        </mxCell>
        <mxCell id="BBi84ixBotoM4hK3SIDS-464" value="10" style="ellipse;whiteSpace=wrap;html=1;fontStyle=1;fontSize=20;" parent="WIyWlLk6GJQsqaUBKTNV-1" vertex="1">
          <mxGeometry x="1800" y="1740" width="90" height="70" as="geometry" />
        </mxCell>
        <mxCell id="BBi84ixBotoM4hK3SIDS-465" value="" style="endArrow=classic;html=1;rounded=0;exitX=1;exitY=1;exitDx=0;exitDy=0;fontSize=20;fontStyle=1;entryX=0.284;entryY=0.014;entryDx=0;entryDy=0;entryPerimeter=0;" parent="WIyWlLk6GJQsqaUBKTNV-1" source="BBi84ixBotoM4hK3SIDS-464" target="BBi84ixBotoM4hK3SIDS-470" edge="1">
          <mxGeometry width="50" height="50" relative="1" as="geometry">
            <mxPoint x="1980" y="1810" as="sourcePoint" />
            <mxPoint x="1920" y="1890" as="targetPoint" />
          </mxGeometry>
        </mxCell>
        <mxCell id="BBi84ixBotoM4hK3SIDS-466" value="" style="endArrow=classic;html=1;rounded=0;exitX=0;exitY=1;exitDx=0;exitDy=0;entryX=0.5;entryY=0;entryDx=0;entryDy=0;fontSize=20;fontStyle=1" parent="WIyWlLk6GJQsqaUBKTNV-1" source="BBi84ixBotoM4hK3SIDS-464" target="BBi84ixBotoM4hK3SIDS-469" edge="1">
          <mxGeometry width="50" height="50" relative="1" as="geometry">
            <mxPoint x="1970" y="1820" as="sourcePoint" />
            <mxPoint x="1760" y="1890" as="targetPoint" />
          </mxGeometry>
        </mxCell>
        <mxCell id="BBi84ixBotoM4hK3SIDS-467" value="T" style="text;html=1;align=center;verticalAlign=middle;whiteSpace=wrap;rounded=0;fontSize=20;fontStyle=1" parent="WIyWlLk6GJQsqaUBKTNV-1" vertex="1">
          <mxGeometry x="1928" y="1800" width="30" height="30" as="geometry" />
        </mxCell>
        <mxCell id="BBi84ixBotoM4hK3SIDS-468" value="F" style="text;html=1;align=center;verticalAlign=middle;whiteSpace=wrap;rounded=0;fontSize=20;fontStyle=1" parent="WIyWlLk6GJQsqaUBKTNV-1" vertex="1">
          <mxGeometry x="1750" y="1790" width="30" height="30" as="geometry" />
        </mxCell>
        <mxCell id="BBi84ixBotoM4hK3SIDS-469" value="12" style="ellipse;whiteSpace=wrap;html=1;fontStyle=1;fontSize=20;" parent="WIyWlLk6GJQsqaUBKTNV-1" vertex="1">
          <mxGeometry x="1680" y="1850" width="90" height="70" as="geometry" />
        </mxCell>
        <mxCell id="BBi84ixBotoM4hK3SIDS-470" value="11" style="ellipse;whiteSpace=wrap;html=1;fontStyle=1;fontSize=20;" parent="WIyWlLk6GJQsqaUBKTNV-1" vertex="1">
          <mxGeometry x="1940" y="1850" width="90" height="70" as="geometry" />
        </mxCell>
        <mxCell id="BBi84ixBotoM4hK3SIDS-471" value="" style="endArrow=classic;html=1;rounded=0;" parent="WIyWlLk6GJQsqaUBKTNV-1" target="BBi84ixBotoM4hK3SIDS-464" edge="1">
          <mxGeometry width="50" height="50" relative="1" as="geometry">
            <mxPoint x="1845" y="1700" as="sourcePoint" />
            <mxPoint x="1500" y="1820" as="targetPoint" />
          </mxGeometry>
        </mxCell>
        <mxCell id="BBi84ixBotoM4hK3SIDS-472" value="MAX &amp;lt; c" style="text;html=1;align=center;verticalAlign=middle;whiteSpace=wrap;rounded=0;fontSize=20;" parent="WIyWlLk6GJQsqaUBKTNV-1" vertex="1">
          <mxGeometry x="1900" y="1770" width="100" height="30" as="geometry" />
        </mxCell>
        <mxCell id="BBi84ixBotoM4hK3SIDS-473" value="MAX &amp;lt; b" style="text;html=1;align=center;verticalAlign=middle;whiteSpace=wrap;rounded=0;fontSize=20;" parent="WIyWlLk6GJQsqaUBKTNV-1" vertex="1">
          <mxGeometry x="1760" y="1550" width="100" height="30" as="geometry" />
        </mxCell>
        <mxCell id="BBi84ixBotoM4hK3SIDS-476" style="edgeStyle=orthogonalEdgeStyle;rounded=0;orthogonalLoop=1;jettySize=auto;html=1;exitX=0.5;exitY=1;exitDx=0;exitDy=0;" parent="WIyWlLk6GJQsqaUBKTNV-1" source="BBi84ixBotoM4hK3SIDS-449" target="BBi84ixBotoM4hK3SIDS-449" edge="1">
          <mxGeometry relative="1" as="geometry" />
        </mxCell>
        <mxCell id="BBi84ixBotoM4hK3SIDS-477" value="" style="endArrow=classic;html=1;rounded=0;exitX=0;exitY=0.5;exitDx=0;exitDy=0;entryX=1;entryY=0.5;entryDx=0;entryDy=0;" parent="WIyWlLk6GJQsqaUBKTNV-1" source="BBi84ixBotoM4hK3SIDS-470" target="BBi84ixBotoM4hK3SIDS-469" edge="1">
          <mxGeometry width="50" height="50" relative="1" as="geometry">
            <mxPoint x="2110" y="1750" as="sourcePoint" />
            <mxPoint x="2160" y="1700" as="targetPoint" />
          </mxGeometry>
        </mxCell>
        <mxCell id="BBi84ixBotoM4hK3SIDS-478" value="13" style="ellipse;whiteSpace=wrap;html=1;fontStyle=1;fontSize=20;" parent="WIyWlLk6GJQsqaUBKTNV-1" vertex="1">
          <mxGeometry x="1440" y="1550" width="90" height="70" as="geometry" />
        </mxCell>
        <mxCell id="BBi84ixBotoM4hK3SIDS-479" value="" style="endArrow=classic;html=1;rounded=0;exitX=0;exitY=0.5;exitDx=0;exitDy=0;entryX=1;entryY=1;entryDx=0;entryDy=0;" parent="WIyWlLk6GJQsqaUBKTNV-1" source="BBi84ixBotoM4hK3SIDS-469" target="BBi84ixBotoM4hK3SIDS-478" edge="1">
          <mxGeometry width="50" height="50" relative="1" as="geometry">
            <mxPoint x="1490" y="1890" as="sourcePoint" />
            <mxPoint x="1540" y="1840" as="targetPoint" />
          </mxGeometry>
        </mxCell>
        <mxCell id="BBi84ixBotoM4hK3SIDS-579" value="&lt;h4&gt;&lt;font face=&quot;Times New Roman&quot; style=&quot;font-size: 18px;&quot;&gt;6&lt;/font&gt;&lt;/h4&gt;" style="ellipse;whiteSpace=wrap;html=1;" parent="WIyWlLk6GJQsqaUBKTNV-1" vertex="1">
          <mxGeometry x="3555" y="1105" width="70" height="50" as="geometry" />
        </mxCell>
        <mxCell id="BBi84ixBotoM4hK3SIDS-581" value="&lt;h4&gt;&lt;font face=&quot;Times New Roman&quot; style=&quot;font-size: 18px;&quot;&gt;1-2&lt;/font&gt;&lt;/h4&gt;" style="ellipse;whiteSpace=wrap;html=1;" parent="WIyWlLk6GJQsqaUBKTNV-1" vertex="1">
          <mxGeometry x="3597.5" y="855" width="85" height="50" as="geometry" />
        </mxCell>
        <mxCell id="BBi84ixBotoM4hK3SIDS-582" value="&lt;h4&gt;&lt;font face=&quot;Times New Roman&quot; style=&quot;font-size: 18px;&quot;&gt;3&lt;/font&gt;&lt;/h4&gt;" style="ellipse;whiteSpace=wrap;html=1;" parent="WIyWlLk6GJQsqaUBKTNV-1" vertex="1">
          <mxGeometry x="3595" y="940" width="90" height="55" as="geometry" />
        </mxCell>
        <mxCell id="BBi84ixBotoM4hK3SIDS-584" value="&lt;h4&gt;&lt;font face=&quot;Times New Roman&quot; style=&quot;font-size: 18px;&quot;&gt;4&lt;/font&gt;&lt;/h4&gt;" style="ellipse;whiteSpace=wrap;html=1;" parent="WIyWlLk6GJQsqaUBKTNV-1" vertex="1">
          <mxGeometry x="3765" y="1015" width="80" height="50" as="geometry" />
        </mxCell>
        <mxCell id="BBi84ixBotoM4hK3SIDS-585" value="&lt;h4&gt;&lt;font face=&quot;Times New Roman&quot; style=&quot;font-size: 18px;&quot;&gt;5&lt;/font&gt;&lt;/h4&gt;" style="ellipse;whiteSpace=wrap;html=1;" parent="WIyWlLk6GJQsqaUBKTNV-1" vertex="1">
          <mxGeometry x="3450" y="1015" width="85" height="50" as="geometry" />
        </mxCell>
        <mxCell id="BBi84ixBotoM4hK3SIDS-586" value="" style="endArrow=classic;html=1;rounded=0;exitX=0.957;exitY=0.703;exitDx=0;exitDy=0;entryX=0.5;entryY=0;entryDx=0;entryDy=0;exitPerimeter=0;" parent="WIyWlLk6GJQsqaUBKTNV-1" source="BBi84ixBotoM4hK3SIDS-582" target="BBi84ixBotoM4hK3SIDS-584" edge="1">
          <mxGeometry width="50" height="50" relative="1" as="geometry">
            <mxPoint x="3565" y="725" as="sourcePoint" />
            <mxPoint x="3615" y="675" as="targetPoint" />
            <Array as="points" />
          </mxGeometry>
        </mxCell>
        <mxCell id="BBi84ixBotoM4hK3SIDS-587" value="" style="endArrow=classic;html=1;rounded=0;exitX=0.5;exitY=1;exitDx=0;exitDy=0;entryX=0.5;entryY=0;entryDx=0;entryDy=0;" parent="WIyWlLk6GJQsqaUBKTNV-1" source="BBi84ixBotoM4hK3SIDS-581" target="BBi84ixBotoM4hK3SIDS-582" edge="1">
          <mxGeometry width="50" height="50" relative="1" as="geometry">
            <mxPoint x="3565" y="725" as="sourcePoint" />
            <mxPoint x="3615" y="675" as="targetPoint" />
          </mxGeometry>
        </mxCell>
        <mxCell id="BBi84ixBotoM4hK3SIDS-588" value="" style="endArrow=classic;html=1;rounded=0;exitX=0;exitY=0.5;exitDx=0;exitDy=0;entryX=0.5;entryY=0;entryDx=0;entryDy=0;" parent="WIyWlLk6GJQsqaUBKTNV-1" source="BBi84ixBotoM4hK3SIDS-582" target="BBi84ixBotoM4hK3SIDS-585" edge="1">
          <mxGeometry width="50" height="50" relative="1" as="geometry">
            <mxPoint x="3565" y="725" as="sourcePoint" />
            <mxPoint x="3615" y="675" as="targetPoint" />
            <Array as="points" />
          </mxGeometry>
        </mxCell>
        <mxCell id="BBi84ixBotoM4hK3SIDS-591" value="" style="endArrow=classic;html=1;rounded=0;exitX=0;exitY=0.5;exitDx=0;exitDy=0;entryX=1;entryY=0.5;entryDx=0;entryDy=0;" parent="WIyWlLk6GJQsqaUBKTNV-1" source="BBi84ixBotoM4hK3SIDS-584" target="BBi84ixBotoM4hK3SIDS-585" edge="1">
          <mxGeometry width="50" height="50" relative="1" as="geometry">
            <mxPoint x="3565" y="705" as="sourcePoint" />
            <mxPoint x="3625" y="1055" as="targetPoint" />
            <Array as="points" />
          </mxGeometry>
        </mxCell>
        <mxCell id="BBi84ixBotoM4hK3SIDS-593" value="&lt;h4&gt;&lt;font face=&quot;Times New Roman&quot; style=&quot;font-size: 18px;&quot;&gt;7&lt;/font&gt;&lt;/h4&gt;" style="ellipse;whiteSpace=wrap;html=1;" parent="WIyWlLk6GJQsqaUBKTNV-1" vertex="1">
          <mxGeometry x="3355" y="1105" width="70" height="50" as="geometry" />
        </mxCell>
        <mxCell id="BBi84ixBotoM4hK3SIDS-594" value="" style="endArrow=classic;html=1;rounded=0;entryX=0.411;entryY=0.007;entryDx=0;entryDy=0;entryPerimeter=0;exitX=0;exitY=1;exitDx=0;exitDy=0;" parent="WIyWlLk6GJQsqaUBKTNV-1" source="BBi84ixBotoM4hK3SIDS-585" target="BBi84ixBotoM4hK3SIDS-593" edge="1">
          <mxGeometry width="50" height="50" relative="1" as="geometry">
            <mxPoint x="3425" y="1155" as="sourcePoint" />
            <mxPoint x="3615" y="1325" as="targetPoint" />
            <Array as="points" />
          </mxGeometry>
        </mxCell>
        <mxCell id="BBi84ixBotoM4hK3SIDS-595" value="" style="endArrow=classic;html=1;rounded=0;entryX=0.5;entryY=0;entryDx=0;entryDy=0;exitX=0.943;exitY=0.733;exitDx=0;exitDy=0;exitPerimeter=0;" parent="WIyWlLk6GJQsqaUBKTNV-1" source="BBi84ixBotoM4hK3SIDS-585" target="BBi84ixBotoM4hK3SIDS-579" edge="1">
          <mxGeometry width="50" height="50" relative="1" as="geometry">
            <mxPoint x="3515" y="1195" as="sourcePoint" />
            <mxPoint x="3615" y="1325" as="targetPoint" />
            <Array as="points" />
          </mxGeometry>
        </mxCell>
        <mxCell id="BBi84ixBotoM4hK3SIDS-598" value="&lt;h4&gt;&lt;font style=&quot;font-size: 17px;&quot; face=&quot;Times New Roman&quot;&gt;b == c&lt;/font&gt;&lt;/h4&gt;" style="text;html=1;align=center;verticalAlign=middle;resizable=0;points=[];autosize=1;strokeColor=none;fillColor=none;" parent="WIyWlLk6GJQsqaUBKTNV-1" vertex="1">
          <mxGeometry x="3275" y="1095" width="70" height="70" as="geometry" />
        </mxCell>
        <mxCell id="BBi84ixBotoM4hK3SIDS-599" value="&lt;h4&gt;&lt;font face=&quot;Times New Roman&quot; style=&quot;font-size: 18px;&quot;&gt;8&lt;/font&gt;&lt;/h4&gt;" style="ellipse;whiteSpace=wrap;html=1;" parent="WIyWlLk6GJQsqaUBKTNV-1" vertex="1">
          <mxGeometry x="3550" y="1235" width="100" height="60" as="geometry" />
        </mxCell>
        <mxCell id="BBi84ixBotoM4hK3SIDS-600" value="&lt;h4&gt;&lt;font face=&quot;Times New Roman&quot; style=&quot;font-size: 18px;&quot;&gt;9&lt;/font&gt;&lt;/h4&gt;" style="ellipse;whiteSpace=wrap;html=1;" parent="WIyWlLk6GJQsqaUBKTNV-1" vertex="1">
          <mxGeometry x="3255" y="1300" width="100" height="60" as="geometry" />
        </mxCell>
        <mxCell id="BBi84ixBotoM4hK3SIDS-601" value="" style="endArrow=classic;html=1;rounded=0;exitX=0.5;exitY=1;exitDx=0;exitDy=0;entryX=0.5;entryY=0;entryDx=0;entryDy=0;" parent="WIyWlLk6GJQsqaUBKTNV-1" source="BBi84ixBotoM4hK3SIDS-593" target="BBi84ixBotoM4hK3SIDS-599" edge="1">
          <mxGeometry width="50" height="50" relative="1" as="geometry">
            <mxPoint x="3850" y="1235" as="sourcePoint" />
            <mxPoint x="3900" y="1185" as="targetPoint" />
            <Array as="points" />
          </mxGeometry>
        </mxCell>
        <mxCell id="BBi84ixBotoM4hK3SIDS-602" value="" style="endArrow=classic;html=1;rounded=0;exitX=0.5;exitY=1;exitDx=0;exitDy=0;entryX=0.5;entryY=0;entryDx=0;entryDy=0;" parent="WIyWlLk6GJQsqaUBKTNV-1" source="BBi84ixBotoM4hK3SIDS-593" target="BBi84ixBotoM4hK3SIDS-600" edge="1">
          <mxGeometry width="50" height="50" relative="1" as="geometry">
            <mxPoint x="3850" y="1235" as="sourcePoint" />
            <mxPoint x="3900" y="1185" as="targetPoint" />
            <Array as="points" />
          </mxGeometry>
        </mxCell>
        <mxCell id="BBi84ixBotoM4hK3SIDS-606" value="" style="endArrow=classic;html=1;rounded=0;exitX=0;exitY=0.5;exitDx=0;exitDy=0;entryX=0.969;entryY=0.293;entryDx=0;entryDy=0;entryPerimeter=0;" parent="WIyWlLk6GJQsqaUBKTNV-1" source="BBi84ixBotoM4hK3SIDS-599" target="BBi84ixBotoM4hK3SIDS-600" edge="1">
          <mxGeometry width="50" height="50" relative="1" as="geometry">
            <mxPoint x="3260" y="1235" as="sourcePoint" />
            <mxPoint x="3310" y="1185" as="targetPoint" />
          </mxGeometry>
        </mxCell>
        <mxCell id="BBi84ixBotoM4hK3SIDS-607" value="&lt;h4&gt;&lt;font style=&quot;font-size: 17px;&quot; face=&quot;Times New Roman&quot;&gt;match == 0&lt;/font&gt;&lt;/h4&gt;" style="text;html=1;align=center;verticalAlign=middle;resizable=0;points=[];autosize=1;strokeColor=none;fillColor=none;" parent="WIyWlLk6GJQsqaUBKTNV-1" vertex="1">
          <mxGeometry x="3368" y="1295" width="110" height="70" as="geometry" />
        </mxCell>
        <mxCell id="BBi84ixBotoM4hK3SIDS-608" value="&lt;h4&gt;&lt;font face=&quot;Times New Roman&quot; style=&quot;font-size: 18px;&quot;&gt;17&lt;/font&gt;&lt;/h4&gt;" style="ellipse;whiteSpace=wrap;html=1;" parent="WIyWlLk6GJQsqaUBKTNV-1" vertex="1">
          <mxGeometry x="2850" y="1455" width="100" height="60" as="geometry" />
        </mxCell>
        <mxCell id="BBi84ixBotoM4hK3SIDS-609" value="&lt;h4&gt;&lt;font face=&quot;Times New Roman&quot; style=&quot;font-size: 18px;&quot;&gt;10&lt;/font&gt;&lt;/h4&gt;" style="ellipse;whiteSpace=wrap;html=1;" parent="WIyWlLk6GJQsqaUBKTNV-1" vertex="1">
          <mxGeometry x="3830" y="1418.75" width="100" height="60" as="geometry" />
        </mxCell>
        <mxCell id="BBi84ixBotoM4hK3SIDS-610" value="" style="endArrow=classic;html=1;rounded=0;exitX=0;exitY=1;exitDx=0;exitDy=0;entryX=0.5;entryY=0;entryDx=0;entryDy=0;" parent="WIyWlLk6GJQsqaUBKTNV-1" source="BBi84ixBotoM4hK3SIDS-600" target="BBi84ixBotoM4hK3SIDS-608" edge="1">
          <mxGeometry width="50" height="50" relative="1" as="geometry">
            <mxPoint x="3260" y="1325" as="sourcePoint" />
            <mxPoint x="3310" y="1275" as="targetPoint" />
            <Array as="points" />
          </mxGeometry>
        </mxCell>
        <mxCell id="BBi84ixBotoM4hK3SIDS-611" value="" style="endArrow=classic;html=1;rounded=0;exitX=0.77;exitY=0.954;exitDx=0;exitDy=0;entryX=0.5;entryY=0;entryDx=0;entryDy=0;exitPerimeter=0;" parent="WIyWlLk6GJQsqaUBKTNV-1" source="BBi84ixBotoM4hK3SIDS-600" target="BBi84ixBotoM4hK3SIDS-609" edge="1">
          <mxGeometry width="50" height="50" relative="1" as="geometry">
            <mxPoint x="3260" y="1325" as="sourcePoint" />
            <mxPoint x="3310" y="1275" as="targetPoint" />
            <Array as="points" />
          </mxGeometry>
        </mxCell>
        <mxCell id="BBi84ixBotoM4hK3SIDS-614" value="&lt;h4&gt;&lt;font style=&quot;font-size: 17px;&quot; face=&quot;Times New Roman&quot;&gt;(a +&amp;nbsp; b) &amp;lt;= c&lt;/font&gt;&lt;/h4&gt;" style="text;html=1;align=center;verticalAlign=middle;resizable=0;points=[];autosize=1;strokeColor=none;fillColor=none;" parent="WIyWlLk6GJQsqaUBKTNV-1" vertex="1">
          <mxGeometry x="3920" y="1408.75" width="110" height="70" as="geometry" />
        </mxCell>
        <mxCell id="BBi84ixBotoM4hK3SIDS-615" value="&lt;h4&gt;&lt;font face=&quot;Times New Roman&quot; style=&quot;font-size: 18px;&quot;&gt;11&lt;/font&gt;&lt;/h4&gt;" style="ellipse;whiteSpace=wrap;html=1;" parent="WIyWlLk6GJQsqaUBKTNV-1" vertex="1">
          <mxGeometry x="3995" y="1513.75" width="100" height="60" as="geometry" />
        </mxCell>
        <mxCell id="BBi84ixBotoM4hK3SIDS-616" value="&lt;h4&gt;&lt;font face=&quot;Times New Roman&quot; style=&quot;font-size: 18px;&quot;&gt;12&lt;/font&gt;&lt;/h4&gt;" style="ellipse;whiteSpace=wrap;html=1;" parent="WIyWlLk6GJQsqaUBKTNV-1" vertex="1">
          <mxGeometry x="3705" y="1513.75" width="100" height="60" as="geometry" />
        </mxCell>
        <mxCell id="BBi84ixBotoM4hK3SIDS-617" value="" style="endArrow=classic;html=1;rounded=0;exitX=0.01;exitY=0.631;exitDx=0;exitDy=0;entryX=0.5;entryY=0;entryDx=0;entryDy=0;exitPerimeter=0;" parent="WIyWlLk6GJQsqaUBKTNV-1" source="BBi84ixBotoM4hK3SIDS-609" target="BBi84ixBotoM4hK3SIDS-616" edge="1">
          <mxGeometry width="50" height="50" relative="1" as="geometry">
            <mxPoint x="4055" y="1183.75" as="sourcePoint" />
            <mxPoint x="4105" y="1133.75" as="targetPoint" />
            <Array as="points" />
          </mxGeometry>
        </mxCell>
        <mxCell id="BBi84ixBotoM4hK3SIDS-618" value="" style="endArrow=classic;html=1;rounded=0;exitX=0.974;exitY=0.701;exitDx=0;exitDy=0;entryX=0.5;entryY=0;entryDx=0;entryDy=0;exitPerimeter=0;" parent="WIyWlLk6GJQsqaUBKTNV-1" source="BBi84ixBotoM4hK3SIDS-609" target="BBi84ixBotoM4hK3SIDS-615" edge="1">
          <mxGeometry width="50" height="50" relative="1" as="geometry">
            <mxPoint x="4055" y="1183.75" as="sourcePoint" />
            <mxPoint x="4105" y="1133.75" as="targetPoint" />
            <Array as="points" />
          </mxGeometry>
        </mxCell>
        <mxCell id="BBi84ixBotoM4hK3SIDS-621" value="&lt;h4&gt;&lt;font style=&quot;font-size: 17px;&quot; face=&quot;Times New Roman&quot;&gt;(b + c) &amp;lt;= a&lt;/font&gt;&lt;/h4&gt;" style="text;html=1;align=center;verticalAlign=middle;resizable=0;points=[];autosize=1;strokeColor=none;fillColor=none;" parent="WIyWlLk6GJQsqaUBKTNV-1" vertex="1">
          <mxGeometry x="3810" y="1503.75" width="110" height="70" as="geometry" />
        </mxCell>
        <mxCell id="BBi84ixBotoM4hK3SIDS-622" value="&lt;h4&gt;&lt;font face=&quot;Times New Roman&quot; style=&quot;font-size: 18px;&quot;&gt;14&lt;/font&gt;&lt;/h4&gt;" style="ellipse;whiteSpace=wrap;html=1;" parent="WIyWlLk6GJQsqaUBKTNV-1" vertex="1">
          <mxGeometry x="3580" y="1596.25" width="100" height="60" as="geometry" />
        </mxCell>
        <mxCell id="BBi84ixBotoM4hK3SIDS-623" value="&lt;h4&gt;&lt;font face=&quot;Times New Roman&quot; style=&quot;font-size: 18px;&quot;&gt;13&lt;/font&gt;&lt;/h4&gt;" style="ellipse;whiteSpace=wrap;html=1;" parent="WIyWlLk6GJQsqaUBKTNV-1" vertex="1">
          <mxGeometry x="3810" y="1593.75" width="100" height="60" as="geometry" />
        </mxCell>
        <mxCell id="BBi84ixBotoM4hK3SIDS-624" value="" style="endArrow=classic;html=1;rounded=0;entryX=0.5;entryY=0;entryDx=0;entryDy=0;" parent="WIyWlLk6GJQsqaUBKTNV-1" target="BBi84ixBotoM4hK3SIDS-622" edge="1">
          <mxGeometry width="50" height="50" relative="1" as="geometry">
            <mxPoint x="3755" y="1573.75" as="sourcePoint" />
            <mxPoint x="4105" y="1373.75" as="targetPoint" />
            <Array as="points" />
          </mxGeometry>
        </mxCell>
        <mxCell id="BBi84ixBotoM4hK3SIDS-625" value="" style="endArrow=classic;html=1;rounded=0;exitX=0.5;exitY=1;exitDx=0;exitDy=0;entryX=0.5;entryY=0;entryDx=0;entryDy=0;" parent="WIyWlLk6GJQsqaUBKTNV-1" source="BBi84ixBotoM4hK3SIDS-616" target="BBi84ixBotoM4hK3SIDS-623" edge="1">
          <mxGeometry width="50" height="50" relative="1" as="geometry">
            <mxPoint x="4055" y="1423.75" as="sourcePoint" />
            <mxPoint x="4105" y="1373.75" as="targetPoint" />
            <Array as="points" />
          </mxGeometry>
        </mxCell>
        <mxCell id="BBi84ixBotoM4hK3SIDS-628" value="&lt;h4&gt;&lt;font style=&quot;font-size: 17px;&quot; face=&quot;Times New Roman&quot;&gt;(a + c) &amp;lt;= b&lt;/font&gt;&lt;/h4&gt;" style="text;html=1;align=center;verticalAlign=middle;resizable=0;points=[];autosize=1;strokeColor=none;fillColor=none;" parent="WIyWlLk6GJQsqaUBKTNV-1" vertex="1">
          <mxGeometry x="3680" y="1591.25" width="110" height="70" as="geometry" />
        </mxCell>
        <mxCell id="BBi84ixBotoM4hK3SIDS-629" value="&lt;h4&gt;&lt;font face=&quot;Times New Roman&quot; style=&quot;font-size: 18px;&quot;&gt;15&lt;/font&gt;&lt;/h4&gt;" style="ellipse;whiteSpace=wrap;html=1;" parent="WIyWlLk6GJQsqaUBKTNV-1" vertex="1">
          <mxGeometry x="3695" y="1691.25" width="100" height="60" as="geometry" />
        </mxCell>
        <mxCell id="BBi84ixBotoM4hK3SIDS-630" value="&lt;h4&gt;&lt;font face=&quot;Times New Roman&quot; style=&quot;font-size: 18px;&quot;&gt;16&lt;/font&gt;&lt;/h4&gt;" style="ellipse;whiteSpace=wrap;html=1;" parent="WIyWlLk6GJQsqaUBKTNV-1" vertex="1">
          <mxGeometry x="3495" y="1689.25" width="100" height="60" as="geometry" />
        </mxCell>
        <mxCell id="BBi84ixBotoM4hK3SIDS-631" value="" style="endArrow=classic;html=1;rounded=0;exitX=0.5;exitY=1;exitDx=0;exitDy=0;entryX=0.5;entryY=0;entryDx=0;entryDy=0;" parent="WIyWlLk6GJQsqaUBKTNV-1" source="BBi84ixBotoM4hK3SIDS-622" target="BBi84ixBotoM4hK3SIDS-629" edge="1">
          <mxGeometry width="50" height="50" relative="1" as="geometry">
            <mxPoint x="4100" y="1756.25" as="sourcePoint" />
            <mxPoint x="4150" y="1706.25" as="targetPoint" />
            <Array as="points" />
          </mxGeometry>
        </mxCell>
        <mxCell id="BBi84ixBotoM4hK3SIDS-632" value="" style="endArrow=classic;html=1;rounded=0;exitX=0.5;exitY=1;exitDx=0;exitDy=0;entryX=0.5;entryY=0;entryDx=0;entryDy=0;" parent="WIyWlLk6GJQsqaUBKTNV-1" source="BBi84ixBotoM4hK3SIDS-622" target="BBi84ixBotoM4hK3SIDS-630" edge="1">
          <mxGeometry width="50" height="50" relative="1" as="geometry">
            <mxPoint x="4100" y="1756.25" as="sourcePoint" />
            <mxPoint x="4150" y="1706.25" as="targetPoint" />
            <Array as="points" />
          </mxGeometry>
        </mxCell>
        <mxCell id="BBi84ixBotoM4hK3SIDS-635" value="&lt;h4&gt;&lt;font face=&quot;Times New Roman&quot; style=&quot;font-size: 18px;&quot;&gt;18&lt;/font&gt;&lt;/h4&gt;" style="ellipse;whiteSpace=wrap;html=1;" parent="WIyWlLk6GJQsqaUBKTNV-1" vertex="1">
          <mxGeometry x="3160" y="1519.25" width="100" height="60" as="geometry" />
        </mxCell>
        <mxCell id="BBi84ixBotoM4hK3SIDS-636" value="&lt;h4&gt;&lt;font style=&quot;font-size: 17px;&quot; face=&quot;Times New Roman&quot;&gt;match == 1&lt;/font&gt;&lt;/h4&gt;" style="text;html=1;align=center;verticalAlign=middle;resizable=0;points=[];autosize=1;strokeColor=none;fillColor=none;" parent="WIyWlLk6GJQsqaUBKTNV-1" vertex="1">
          <mxGeometry x="2950" y="1435" width="110" height="70" as="geometry" />
        </mxCell>
        <mxCell id="BBi84ixBotoM4hK3SIDS-637" value="&lt;h4&gt;&lt;font face=&quot;Times New Roman&quot; style=&quot;font-size: 18px;&quot;&gt;21&lt;/font&gt;&lt;/h4&gt;" style="ellipse;whiteSpace=wrap;html=1;" parent="WIyWlLk6GJQsqaUBKTNV-1" vertex="1">
          <mxGeometry x="2660" y="1555" width="100" height="60" as="geometry" />
        </mxCell>
        <mxCell id="BBi84ixBotoM4hK3SIDS-638" value="" style="endArrow=classic;html=1;rounded=0;entryX=0.5;entryY=0;entryDx=0;entryDy=0;exitX=0;exitY=0.5;exitDx=0;exitDy=0;" parent="WIyWlLk6GJQsqaUBKTNV-1" source="BBi84ixBotoM4hK3SIDS-608" target="BBi84ixBotoM4hK3SIDS-637" edge="1">
          <mxGeometry width="50" height="50" relative="1" as="geometry">
            <mxPoint x="2900" y="1515" as="sourcePoint" />
            <mxPoint x="3660" y="1435" as="targetPoint" />
            <Array as="points" />
          </mxGeometry>
        </mxCell>
        <mxCell id="BBi84ixBotoM4hK3SIDS-639" value="" style="endArrow=classic;html=1;rounded=0;exitX=1;exitY=0.5;exitDx=0;exitDy=0;entryX=0.5;entryY=0;entryDx=0;entryDy=0;" parent="WIyWlLk6GJQsqaUBKTNV-1" source="BBi84ixBotoM4hK3SIDS-608" target="BBi84ixBotoM4hK3SIDS-635" edge="1">
          <mxGeometry width="50" height="50" relative="1" as="geometry">
            <mxPoint x="3610" y="1485" as="sourcePoint" />
            <mxPoint x="3660" y="1435" as="targetPoint" />
            <Array as="points" />
          </mxGeometry>
        </mxCell>
        <mxCell id="BBi84ixBotoM4hK3SIDS-642" value="&lt;h4&gt;&lt;font style=&quot;font-size: 17px;&quot; face=&quot;Times New Roman&quot;&gt;(a+c) &amp;lt;= b&lt;/font&gt;&lt;/h4&gt;" style="text;html=1;align=center;verticalAlign=middle;resizable=0;points=[];autosize=1;strokeColor=none;fillColor=none;" parent="WIyWlLk6GJQsqaUBKTNV-1" vertex="1">
          <mxGeometry x="3320" y="1428.75" width="100" height="70" as="geometry" />
        </mxCell>
        <mxCell id="BBi84ixBotoM4hK3SIDS-643" value="&lt;h4&gt;&lt;font face=&quot;Times New Roman&quot; style=&quot;font-size: 18px;&quot;&gt;19&lt;/font&gt;&lt;/h4&gt;" style="ellipse;whiteSpace=wrap;html=1;" parent="WIyWlLk6GJQsqaUBKTNV-1" vertex="1">
          <mxGeometry x="3300" y="1615" width="100" height="60" as="geometry" />
        </mxCell>
        <mxCell id="BBi84ixBotoM4hK3SIDS-644" value="&lt;h4&gt;&lt;font face=&quot;Times New Roman&quot; style=&quot;font-size: 18px;&quot;&gt;20&lt;/font&gt;&lt;/h4&gt;" style="ellipse;whiteSpace=wrap;html=1;" parent="WIyWlLk6GJQsqaUBKTNV-1" vertex="1">
          <mxGeometry x="3050" y="1616.25" width="100" height="60" as="geometry" />
        </mxCell>
        <mxCell id="BBi84ixBotoM4hK3SIDS-645" value="" style="endArrow=classic;html=1;rounded=0;entryX=0.5;entryY=0;entryDx=0;entryDy=0;exitX=0.04;exitY=0.733;exitDx=0;exitDy=0;exitPerimeter=0;" parent="WIyWlLk6GJQsqaUBKTNV-1" source="BBi84ixBotoM4hK3SIDS-635" target="BBi84ixBotoM4hK3SIDS-644" edge="1">
          <mxGeometry width="50" height="50" relative="1" as="geometry">
            <mxPoint x="3180" y="1579.25" as="sourcePoint" />
            <mxPoint x="3740" y="1649.25" as="targetPoint" />
            <Array as="points" />
          </mxGeometry>
        </mxCell>
        <mxCell id="BBi84ixBotoM4hK3SIDS-646" value="" style="endArrow=classic;html=1;rounded=0;exitX=0.99;exitY=0.817;exitDx=0;exitDy=0;entryX=0.5;entryY=0;entryDx=0;entryDy=0;exitPerimeter=0;" parent="WIyWlLk6GJQsqaUBKTNV-1" source="BBi84ixBotoM4hK3SIDS-635" target="BBi84ixBotoM4hK3SIDS-643" edge="1">
          <mxGeometry width="50" height="50" relative="1" as="geometry">
            <mxPoint x="3690" y="1699.25" as="sourcePoint" />
            <mxPoint x="3740" y="1649.25" as="targetPoint" />
            <Array as="points" />
          </mxGeometry>
        </mxCell>
        <mxCell id="BBi84ixBotoM4hK3SIDS-647" value="&lt;h4&gt;&lt;font style=&quot;font-size: 17px;&quot; face=&quot;Times New Roman&quot;&gt;T&lt;/font&gt;&lt;/h4&gt;" style="text;html=1;align=center;verticalAlign=middle;resizable=0;points=[];autosize=1;strokeColor=none;fillColor=none;" parent="WIyWlLk6GJQsqaUBKTNV-1" vertex="1">
          <mxGeometry x="3310" y="1546.25" width="30" height="70" as="geometry" />
        </mxCell>
        <mxCell id="BBi84ixBotoM4hK3SIDS-648" value="&lt;h4&gt;&lt;font style=&quot;font-size: 17px;&quot; face=&quot;Times New Roman&quot;&gt;F&lt;/font&gt;&lt;/h4&gt;" style="text;html=1;align=center;verticalAlign=middle;resizable=0;points=[];autosize=1;strokeColor=none;fillColor=none;" parent="WIyWlLk6GJQsqaUBKTNV-1" vertex="1">
          <mxGeometry x="3110" y="1545" width="30" height="70" as="geometry" />
        </mxCell>
        <mxCell id="BBi84ixBotoM4hK3SIDS-649" value="&lt;h4&gt;&lt;font style=&quot;font-size: 17px;&quot; face=&quot;Times New Roman&quot;&gt;match == 2&lt;/font&gt;&lt;/h4&gt;" style="text;html=1;align=center;verticalAlign=middle;resizable=0;points=[];autosize=1;strokeColor=none;fillColor=none;" parent="WIyWlLk6GJQsqaUBKTNV-1" vertex="1">
          <mxGeometry x="2755" y="1545" width="110" height="70" as="geometry" />
        </mxCell>
        <mxCell id="BBi84ixBotoM4hK3SIDS-650" value="&lt;h4&gt;&lt;font face=&quot;Times New Roman&quot; style=&quot;font-size: 18px;&quot;&gt;25&lt;/font&gt;&lt;/h4&gt;" style="ellipse;whiteSpace=wrap;html=1;" parent="WIyWlLk6GJQsqaUBKTNV-1" vertex="1">
          <mxGeometry x="2380" y="1673.75" width="100" height="60" as="geometry" />
        </mxCell>
        <mxCell id="BBi84ixBotoM4hK3SIDS-651" value="&lt;h4&gt;&lt;font face=&quot;Times New Roman&quot; style=&quot;font-size: 18px;&quot;&gt;22&lt;/font&gt;&lt;/h4&gt;" style="ellipse;whiteSpace=wrap;html=1;" parent="WIyWlLk6GJQsqaUBKTNV-1" vertex="1">
          <mxGeometry x="2835" y="1666.25" width="100" height="60" as="geometry" />
        </mxCell>
        <mxCell id="BBi84ixBotoM4hK3SIDS-652" value="" style="endArrow=classic;html=1;rounded=0;exitX=1;exitY=1;exitDx=0;exitDy=0;entryX=0.5;entryY=0;entryDx=0;entryDy=0;" parent="WIyWlLk6GJQsqaUBKTNV-1" source="BBi84ixBotoM4hK3SIDS-637" target="BBi84ixBotoM4hK3SIDS-651" edge="1">
          <mxGeometry width="50" height="50" relative="1" as="geometry">
            <mxPoint x="2790" y="1585" as="sourcePoint" />
            <mxPoint x="2840" y="1535" as="targetPoint" />
            <Array as="points" />
          </mxGeometry>
        </mxCell>
        <mxCell id="BBi84ixBotoM4hK3SIDS-653" value="" style="endArrow=classic;html=1;rounded=0;exitX=0;exitY=1;exitDx=0;exitDy=0;entryX=0.5;entryY=0;entryDx=0;entryDy=0;" parent="WIyWlLk6GJQsqaUBKTNV-1" source="BBi84ixBotoM4hK3SIDS-637" target="BBi84ixBotoM4hK3SIDS-650" edge="1">
          <mxGeometry width="50" height="50" relative="1" as="geometry">
            <mxPoint x="2790" y="1585" as="sourcePoint" />
            <mxPoint x="2840" y="1535" as="targetPoint" />
            <Array as="points" />
          </mxGeometry>
        </mxCell>
        <mxCell id="BBi84ixBotoM4hK3SIDS-656" value="&lt;h4&gt;&lt;font style=&quot;font-size: 17px;&quot; face=&quot;Times New Roman&quot;&gt;(a + c) &amp;lt;= b&amp;nbsp;&lt;/font&gt;&lt;/h4&gt;" style="text;html=1;align=center;verticalAlign=middle;resizable=0;points=[];autosize=1;strokeColor=none;fillColor=none;" parent="WIyWlLk6GJQsqaUBKTNV-1" vertex="1">
          <mxGeometry x="2930" y="1656.25" width="110" height="70" as="geometry" />
        </mxCell>
        <mxCell id="BBi84ixBotoM4hK3SIDS-657" value="&lt;h4&gt;&lt;font face=&quot;Times New Roman&quot; style=&quot;font-size: 18px;&quot;&gt;23&lt;/font&gt;&lt;/h4&gt;" style="ellipse;whiteSpace=wrap;html=1;" parent="WIyWlLk6GJQsqaUBKTNV-1" vertex="1">
          <mxGeometry x="2960" y="1761.25" width="100" height="60" as="geometry" />
        </mxCell>
        <mxCell id="BBi84ixBotoM4hK3SIDS-658" value="&lt;h4&gt;&lt;font face=&quot;Times New Roman&quot; style=&quot;font-size: 18px;&quot;&gt;24&lt;/font&gt;&lt;/h4&gt;" style="ellipse;whiteSpace=wrap;html=1;" parent="WIyWlLk6GJQsqaUBKTNV-1" vertex="1">
          <mxGeometry x="2765" y="1761.25" width="100" height="60" as="geometry" />
        </mxCell>
        <mxCell id="BBi84ixBotoM4hK3SIDS-659" value="" style="endArrow=classic;html=1;rounded=0;entryX=0.5;entryY=0;entryDx=0;entryDy=0;exitX=0;exitY=1;exitDx=0;exitDy=0;" parent="WIyWlLk6GJQsqaUBKTNV-1" source="BBi84ixBotoM4hK3SIDS-651" target="BBi84ixBotoM4hK3SIDS-658" edge="1">
          <mxGeometry width="50" height="50" relative="1" as="geometry">
            <mxPoint x="2885" y="1726.25" as="sourcePoint" />
            <mxPoint x="2825" y="1386.25" as="targetPoint" />
            <Array as="points" />
          </mxGeometry>
        </mxCell>
        <mxCell id="BBi84ixBotoM4hK3SIDS-660" value="" style="endArrow=classic;html=1;rounded=0;exitX=1;exitY=1;exitDx=0;exitDy=0;entryX=0.5;entryY=0;entryDx=0;entryDy=0;" parent="WIyWlLk6GJQsqaUBKTNV-1" source="BBi84ixBotoM4hK3SIDS-651" target="BBi84ixBotoM4hK3SIDS-657" edge="1">
          <mxGeometry width="50" height="50" relative="1" as="geometry">
            <mxPoint x="2775" y="1436.25" as="sourcePoint" />
            <mxPoint x="2825" y="1386.25" as="targetPoint" />
            <Array as="points" />
          </mxGeometry>
        </mxCell>
        <mxCell id="BBi84ixBotoM4hK3SIDS-663" value="&lt;h4&gt;&lt;font style=&quot;font-size: 17px;&quot; face=&quot;Times New Roman&quot;&gt;match == 3&lt;/font&gt;&lt;/h4&gt;" style="text;html=1;align=center;verticalAlign=middle;resizable=0;points=[];autosize=1;strokeColor=none;fillColor=none;" parent="WIyWlLk6GJQsqaUBKTNV-1" vertex="1">
          <mxGeometry x="2480" y="1670" width="110" height="70" as="geometry" />
        </mxCell>
        <mxCell id="BBi84ixBotoM4hK3SIDS-664" value="&lt;h4&gt;&lt;font face=&quot;Times New Roman&quot; style=&quot;font-size: 18px;&quot;&gt;26&lt;/font&gt;&lt;/h4&gt;" style="ellipse;whiteSpace=wrap;html=1;" parent="WIyWlLk6GJQsqaUBKTNV-1" vertex="1">
          <mxGeometry x="2490" y="1770" width="100" height="60" as="geometry" />
        </mxCell>
        <mxCell id="BBi84ixBotoM4hK3SIDS-665" value="&lt;h4&gt;&lt;font face=&quot;Times New Roman&quot; style=&quot;font-size: 18px;&quot;&gt;29&lt;/font&gt;&lt;/h4&gt;" style="ellipse;whiteSpace=wrap;html=1;" parent="WIyWlLk6GJQsqaUBKTNV-1" vertex="1">
          <mxGeometry x="2250" y="1770" width="100" height="60" as="geometry" />
        </mxCell>
        <mxCell id="BBi84ixBotoM4hK3SIDS-666" value="" style="endArrow=classic;html=1;rounded=0;entryX=0.5;entryY=0;entryDx=0;entryDy=0;exitX=0;exitY=1;exitDx=0;exitDy=0;" parent="WIyWlLk6GJQsqaUBKTNV-1" source="BBi84ixBotoM4hK3SIDS-650" target="BBi84ixBotoM4hK3SIDS-665" edge="1">
          <mxGeometry width="50" height="50" relative="1" as="geometry">
            <mxPoint x="2380" y="1890" as="sourcePoint" />
            <mxPoint x="2580" y="1740" as="targetPoint" />
            <Array as="points" />
          </mxGeometry>
        </mxCell>
        <mxCell id="BBi84ixBotoM4hK3SIDS-667" value="" style="endArrow=classic;html=1;rounded=0;exitX=1;exitY=1;exitDx=0;exitDy=0;entryX=0;entryY=0;entryDx=0;entryDy=0;" parent="WIyWlLk6GJQsqaUBKTNV-1" source="BBi84ixBotoM4hK3SIDS-650" target="BBi84ixBotoM4hK3SIDS-664" edge="1">
          <mxGeometry width="50" height="50" relative="1" as="geometry">
            <mxPoint x="2530" y="1790" as="sourcePoint" />
            <mxPoint x="2580" y="1740" as="targetPoint" />
            <Array as="points" />
          </mxGeometry>
        </mxCell>
        <mxCell id="BBi84ixBotoM4hK3SIDS-670" value="&lt;h4&gt;&lt;font style=&quot;font-size: 17px;&quot; face=&quot;Times New Roman&quot;&gt;(b + c) &amp;lt;= a&lt;/font&gt;&lt;/h4&gt;" style="text;html=1;align=center;verticalAlign=middle;resizable=0;points=[];autosize=1;strokeColor=none;fillColor=none;" parent="WIyWlLk6GJQsqaUBKTNV-1" vertex="1">
          <mxGeometry x="2590" y="1758" width="110" height="70" as="geometry" />
        </mxCell>
        <mxCell id="BBi84ixBotoM4hK3SIDS-671" value="&lt;h4&gt;&lt;font face=&quot;Times New Roman&quot; style=&quot;font-size: 18px;&quot;&gt;27&lt;/font&gt;&lt;/h4&gt;" style="ellipse;whiteSpace=wrap;html=1;" parent="WIyWlLk6GJQsqaUBKTNV-1" vertex="1">
          <mxGeometry x="2605" y="1870" width="100" height="60" as="geometry" />
        </mxCell>
        <mxCell id="BBi84ixBotoM4hK3SIDS-672" value="&lt;h4&gt;&lt;font face=&quot;Times New Roman&quot; style=&quot;font-size: 18px;&quot;&gt;28&lt;/font&gt;&lt;/h4&gt;" style="ellipse;whiteSpace=wrap;html=1;" parent="WIyWlLk6GJQsqaUBKTNV-1" vertex="1">
          <mxGeometry x="2400" y="1870" width="100" height="60" as="geometry" />
        </mxCell>
        <mxCell id="BBi84ixBotoM4hK3SIDS-673" value="" style="endArrow=classic;html=1;rounded=0;exitX=1;exitY=1;exitDx=0;exitDy=0;" parent="WIyWlLk6GJQsqaUBKTNV-1" source="BBi84ixBotoM4hK3SIDS-664" target="BBi84ixBotoM4hK3SIDS-671" edge="1">
          <mxGeometry width="50" height="50" relative="1" as="geometry">
            <mxPoint x="3040" y="1540" as="sourcePoint" />
            <mxPoint x="3090" y="1490" as="targetPoint" />
            <Array as="points" />
          </mxGeometry>
        </mxCell>
        <mxCell id="BBi84ixBotoM4hK3SIDS-674" value="" style="endArrow=classic;html=1;rounded=0;exitX=0;exitY=1;exitDx=0;exitDy=0;entryX=0.5;entryY=0;entryDx=0;entryDy=0;" parent="WIyWlLk6GJQsqaUBKTNV-1" source="BBi84ixBotoM4hK3SIDS-664" target="BBi84ixBotoM4hK3SIDS-672" edge="1">
          <mxGeometry width="50" height="50" relative="1" as="geometry">
            <mxPoint x="3040" y="1540" as="sourcePoint" />
            <mxPoint x="3090" y="1490" as="targetPoint" />
            <Array as="points" />
          </mxGeometry>
        </mxCell>
        <mxCell id="BBi84ixBotoM4hK3SIDS-677" value="Bài 05" style="text;html=1;align=center;verticalAlign=middle;whiteSpace=wrap;rounded=0;fontStyle=1;fontSize=20;" parent="WIyWlLk6GJQsqaUBKTNV-1" vertex="1">
          <mxGeometry x="3260" y="885" width="110" height="30" as="geometry" />
        </mxCell>
        <mxCell id="BBi84ixBotoM4hK3SIDS-679" value="T" style="text;html=1;align=center;verticalAlign=middle;whiteSpace=wrap;rounded=0;fontStyle=1;fontSize=20;" parent="WIyWlLk6GJQsqaUBKTNV-1" vertex="1">
          <mxGeometry x="3750" y="975" width="60" height="30" as="geometry" />
        </mxCell>
        <mxCell id="BBi84ixBotoM4hK3SIDS-680" value="&lt;h4 style=&quot;border-color: var(--border-color);&quot;&gt;&lt;font style=&quot;border-color: var(--border-color); font-size: 17px;&quot; face=&quot;Times New Roman&quot;&gt;a == b&lt;/font&gt;&lt;/h4&gt;" style="text;html=1;align=center;verticalAlign=middle;whiteSpace=wrap;rounded=0;" parent="WIyWlLk6GJQsqaUBKTNV-1" vertex="1">
          <mxGeometry x="3705" y="955" width="60" height="30" as="geometry" />
        </mxCell>
        <mxCell id="BBi84ixBotoM4hK3SIDS-681" value="F" style="text;html=1;align=center;verticalAlign=middle;whiteSpace=wrap;rounded=0;fontStyle=1;fontSize=20;" parent="WIyWlLk6GJQsqaUBKTNV-1" vertex="1">
          <mxGeometry x="3505" y="975" width="60" height="30" as="geometry" />
        </mxCell>
        <mxCell id="BBi84ixBotoM4hK3SIDS-682" value="&lt;h4 style=&quot;border-color: var(--border-color);&quot;&gt;&lt;font style=&quot;border-color: var(--border-color); font-size: 17px;&quot; face=&quot;Times New Roman&quot;&gt;a == c&lt;/font&gt;&lt;/h4&gt;" style="text;html=1;align=center;verticalAlign=middle;whiteSpace=wrap;rounded=0;" parent="WIyWlLk6GJQsqaUBKTNV-1" vertex="1">
          <mxGeometry x="3540" y="1005" width="60" height="30" as="geometry" />
        </mxCell>
        <mxCell id="BBi84ixBotoM4hK3SIDS-683" value="T" style="text;html=1;align=center;verticalAlign=middle;whiteSpace=wrap;rounded=0;fontStyle=1;fontSize=20;" parent="WIyWlLk6GJQsqaUBKTNV-1" vertex="1">
          <mxGeometry x="3550" y="1055" width="60" height="30" as="geometry" />
        </mxCell>
        <mxCell id="BBi84ixBotoM4hK3SIDS-684" value="F" style="text;html=1;align=center;verticalAlign=middle;whiteSpace=wrap;rounded=0;fontStyle=1;fontSize=20;" parent="WIyWlLk6GJQsqaUBKTNV-1" vertex="1">
          <mxGeometry x="3385" y="1055" width="60" height="30" as="geometry" />
        </mxCell>
        <mxCell id="BBi84ixBotoM4hK3SIDS-685" value="" style="endArrow=classic;html=1;rounded=0;exitX=0;exitY=0.5;exitDx=0;exitDy=0;entryX=1;entryY=0.5;entryDx=0;entryDy=0;" parent="WIyWlLk6GJQsqaUBKTNV-1" source="BBi84ixBotoM4hK3SIDS-579" target="BBi84ixBotoM4hK3SIDS-593" edge="1">
          <mxGeometry width="50" height="50" relative="1" as="geometry">
            <mxPoint x="3495" y="1265" as="sourcePoint" />
            <mxPoint x="3545" y="1215" as="targetPoint" />
          </mxGeometry>
        </mxCell>
        <mxCell id="BBi84ixBotoM4hK3SIDS-686" value="T" style="text;html=1;align=center;verticalAlign=middle;whiteSpace=wrap;rounded=0;fontStyle=1;fontSize=20;" parent="WIyWlLk6GJQsqaUBKTNV-1" vertex="1">
          <mxGeometry x="3690" y="1656.25" width="60" height="30" as="geometry" />
        </mxCell>
        <mxCell id="BBi84ixBotoM4hK3SIDS-687" value="F" style="text;html=1;align=center;verticalAlign=middle;whiteSpace=wrap;rounded=0;fontStyle=1;fontSize=20;" parent="WIyWlLk6GJQsqaUBKTNV-1" vertex="1">
          <mxGeometry x="3535" y="1646.25" width="60" height="30" as="geometry" />
        </mxCell>
        <mxCell id="BBi84ixBotoM4hK3SIDS-688" value="F" style="text;html=1;align=center;verticalAlign=middle;whiteSpace=wrap;rounded=0;fontStyle=1;fontSize=20;" parent="WIyWlLk6GJQsqaUBKTNV-1" vertex="1">
          <mxGeometry x="3645" y="1558.75" width="60" height="30" as="geometry" />
        </mxCell>
        <mxCell id="BBi84ixBotoM4hK3SIDS-690" value="T" style="text;html=1;align=center;verticalAlign=middle;whiteSpace=wrap;rounded=0;fontStyle=1;fontSize=20;" parent="WIyWlLk6GJQsqaUBKTNV-1" vertex="1">
          <mxGeometry x="3805" y="1558.75" width="60" height="30" as="geometry" />
        </mxCell>
        <mxCell id="BBi84ixBotoM4hK3SIDS-691" value="F" style="text;html=1;align=center;verticalAlign=middle;whiteSpace=wrap;rounded=0;fontStyle=1;fontSize=20;" parent="WIyWlLk6GJQsqaUBKTNV-1" vertex="1">
          <mxGeometry x="3745" y="1448.75" width="60" height="30" as="geometry" />
        </mxCell>
        <mxCell id="BBi84ixBotoM4hK3SIDS-692" value="T" style="text;html=1;align=center;verticalAlign=middle;whiteSpace=wrap;rounded=0;fontStyle=1;fontSize=20;" parent="WIyWlLk6GJQsqaUBKTNV-1" vertex="1">
          <mxGeometry x="3970" y="1463.75" width="60" height="30" as="geometry" />
        </mxCell>
        <mxCell id="BBi84ixBotoM4hK3SIDS-693" value="T" style="text;html=1;align=center;verticalAlign=middle;whiteSpace=wrap;rounded=0;fontStyle=1;fontSize=20;" parent="WIyWlLk6GJQsqaUBKTNV-1" vertex="1">
          <mxGeometry x="3585" y="1355" width="60" height="30" as="geometry" />
        </mxCell>
        <mxCell id="BBi84ixBotoM4hK3SIDS-694" value="T" style="text;html=1;align=center;verticalAlign=middle;whiteSpace=wrap;rounded=0;fontStyle=1;fontSize=20;" parent="WIyWlLk6GJQsqaUBKTNV-1" vertex="1">
          <mxGeometry x="2615" y="1825" width="60" height="30" as="geometry" />
        </mxCell>
        <mxCell id="BBi84ixBotoM4hK3SIDS-695" value="F" style="text;html=1;align=center;verticalAlign=middle;whiteSpace=wrap;rounded=0;fontStyle=1;fontSize=20;" parent="WIyWlLk6GJQsqaUBKTNV-1" vertex="1">
          <mxGeometry x="2430" y="1823.75" width="60" height="30" as="geometry" />
        </mxCell>
        <mxCell id="BBi84ixBotoM4hK3SIDS-696" value="T" style="text;html=1;align=center;verticalAlign=middle;whiteSpace=wrap;rounded=0;fontStyle=1;fontSize=20;" parent="WIyWlLk6GJQsqaUBKTNV-1" vertex="1">
          <mxGeometry x="2460" y="1733.75" width="60" height="30" as="geometry" />
        </mxCell>
        <mxCell id="BBi84ixBotoM4hK3SIDS-697" value="F" style="text;html=1;align=center;verticalAlign=middle;whiteSpace=wrap;rounded=0;fontStyle=1;fontSize=20;" parent="WIyWlLk6GJQsqaUBKTNV-1" vertex="1">
          <mxGeometry x="2310" y="1728" width="60" height="30" as="geometry" />
        </mxCell>
        <mxCell id="BBi84ixBotoM4hK3SIDS-698" value="F" style="text;html=1;align=center;verticalAlign=middle;whiteSpace=wrap;rounded=0;fontStyle=1;fontSize=20;" parent="WIyWlLk6GJQsqaUBKTNV-1" vertex="1">
          <mxGeometry x="2775" y="1711.25" width="60" height="30" as="geometry" />
        </mxCell>
        <mxCell id="BBi84ixBotoM4hK3SIDS-699" value="T" style="text;html=1;align=center;verticalAlign=middle;whiteSpace=wrap;rounded=0;fontStyle=1;fontSize=20;" parent="WIyWlLk6GJQsqaUBKTNV-1" vertex="1">
          <mxGeometry x="2950" y="1711.25" width="60" height="30" as="geometry" />
        </mxCell>
        <mxCell id="BBi84ixBotoM4hK3SIDS-700" value="T" style="text;html=1;align=center;verticalAlign=middle;whiteSpace=wrap;rounded=0;fontStyle=1;fontSize=20;" parent="WIyWlLk6GJQsqaUBKTNV-1" vertex="1">
          <mxGeometry x="2800" y="1611.25" width="60" height="30" as="geometry" />
        </mxCell>
        <mxCell id="BBi84ixBotoM4hK3SIDS-702" value="F" style="text;html=1;align=center;verticalAlign=middle;whiteSpace=wrap;rounded=0;fontStyle=1;fontSize=20;" parent="WIyWlLk6GJQsqaUBKTNV-1" vertex="1">
          <mxGeometry x="2530" y="1585" width="60" height="30" as="geometry" />
        </mxCell>
        <mxCell id="BBi84ixBotoM4hK3SIDS-704" value="F" style="text;html=1;align=center;verticalAlign=middle;whiteSpace=wrap;rounded=0;fontStyle=1;fontSize=20;" parent="WIyWlLk6GJQsqaUBKTNV-1" vertex="1">
          <mxGeometry x="2740" y="1485" width="60" height="30" as="geometry" />
        </mxCell>
        <mxCell id="BBi84ixBotoM4hK3SIDS-705" value="T" style="text;html=1;align=center;verticalAlign=middle;whiteSpace=wrap;rounded=0;fontStyle=1;fontSize=20;" parent="WIyWlLk6GJQsqaUBKTNV-1" vertex="1">
          <mxGeometry x="3080" y="1465" width="60" height="30" as="geometry" />
        </mxCell>
        <mxCell id="BBi84ixBotoM4hK3SIDS-706" value="F" style="text;html=1;align=center;verticalAlign=middle;whiteSpace=wrap;rounded=0;fontStyle=1;fontSize=20;" parent="WIyWlLk6GJQsqaUBKTNV-1" vertex="1">
          <mxGeometry x="3060" y="1345" width="60" height="30" as="geometry" />
        </mxCell>
        <mxCell id="BBi84ixBotoM4hK3SIDS-707" value="F" style="text;html=1;align=center;verticalAlign=middle;whiteSpace=wrap;rounded=0;fontStyle=1;fontSize=20;" parent="WIyWlLk6GJQsqaUBKTNV-1" vertex="1">
          <mxGeometry x="3275" y="1195" width="60" height="30" as="geometry" />
        </mxCell>
        <mxCell id="BBi84ixBotoM4hK3SIDS-708" value="T" style="text;html=1;align=center;verticalAlign=middle;whiteSpace=wrap;rounded=0;fontStyle=1;fontSize=20;" parent="WIyWlLk6GJQsqaUBKTNV-1" vertex="1">
          <mxGeometry x="3515" y="1145" width="60" height="30" as="geometry" />
        </mxCell>
        <mxCell id="BBi84ixBotoM4hK3SIDS-710" value="&lt;h4&gt;&lt;font face=&quot;Times New Roman&quot; style=&quot;font-size: 18px;&quot;&gt;1-2&lt;/font&gt;&lt;/h4&gt;" style="ellipse;whiteSpace=wrap;html=1;" parent="WIyWlLk6GJQsqaUBKTNV-1" vertex="1">
          <mxGeometry x="2358" y="50" width="100" height="60" as="geometry" />
        </mxCell>
        <mxCell id="BBi84ixBotoM4hK3SIDS-711" value="&lt;h4&gt;&lt;font face=&quot;Times New Roman&quot; style=&quot;font-size: 18px;&quot;&gt;3.1&lt;/font&gt;&lt;/h4&gt;" style="ellipse;whiteSpace=wrap;html=1;" parent="WIyWlLk6GJQsqaUBKTNV-1" vertex="1">
          <mxGeometry x="2358" y="180" width="100" height="60" as="geometry" />
        </mxCell>
        <mxCell id="BBi84ixBotoM4hK3SIDS-712" value="&lt;h4&gt;&lt;font face=&quot;Times New Roman&quot; style=&quot;font-size: 18px;&quot;&gt;3.2&lt;/font&gt;&lt;/h4&gt;" style="ellipse;whiteSpace=wrap;html=1;" parent="WIyWlLk6GJQsqaUBKTNV-1" vertex="1">
          <mxGeometry x="2560" y="290" width="100" height="60" as="geometry" />
        </mxCell>
        <mxCell id="BBi84ixBotoM4hK3SIDS-713" value="&lt;h4&gt;&lt;font face=&quot;Times New Roman&quot; style=&quot;font-size: 18px;&quot;&gt;4.1&lt;/font&gt;&lt;/h4&gt;" style="ellipse;whiteSpace=wrap;html=1;" parent="WIyWlLk6GJQsqaUBKTNV-1" vertex="1">
          <mxGeometry x="2180" y="270" width="100" height="60" as="geometry" />
        </mxCell>
        <mxCell id="BBi84ixBotoM4hK3SIDS-714" value="&lt;h4&gt;&lt;font face=&quot;Times New Roman&quot;&gt;&lt;span style=&quot;font-size: 17px;&quot;&gt;Count == 1&lt;/span&gt;&lt;/font&gt;&lt;/h4&gt;" style="text;html=1;align=center;verticalAlign=middle;resizable=0;points=[];autosize=1;strokeColor=none;fillColor=none;" parent="WIyWlLk6GJQsqaUBKTNV-1" vertex="1">
          <mxGeometry x="2465" y="175" width="110" height="70" as="geometry" />
        </mxCell>
        <mxCell id="BBi84ixBotoM4hK3SIDS-715" value="&lt;h4&gt;&lt;font face=&quot;Times New Roman&quot;&gt;&lt;span style=&quot;font-size: 17px;&quot;&gt;Count &amp;gt; 0&lt;/span&gt;&lt;/font&gt;&lt;/h4&gt;" style="text;html=1;align=center;verticalAlign=middle;resizable=0;points=[];autosize=1;strokeColor=none;fillColor=none;" parent="WIyWlLk6GJQsqaUBKTNV-1" vertex="1">
          <mxGeometry x="2295" y="265" width="100" height="70" as="geometry" />
        </mxCell>
        <mxCell id="BBi84ixBotoM4hK3SIDS-716" value="&lt;h4&gt;&lt;font face=&quot;Times New Roman&quot; style=&quot;font-size: 18px;&quot;&gt;4.2&lt;/font&gt;&lt;/h4&gt;" style="ellipse;whiteSpace=wrap;html=1;" parent="WIyWlLk6GJQsqaUBKTNV-1" vertex="1">
          <mxGeometry x="2320" y="375" width="100" height="60" as="geometry" />
        </mxCell>
        <mxCell id="BBi84ixBotoM4hK3SIDS-717" value="&lt;h4&gt;&lt;font face=&quot;Times New Roman&quot; style=&quot;font-size: 18px;&quot;&gt;5&lt;/font&gt;&lt;/h4&gt;" style="ellipse;whiteSpace=wrap;html=1;" parent="WIyWlLk6GJQsqaUBKTNV-1" vertex="1">
          <mxGeometry x="2048" y="360" width="100" height="60" as="geometry" />
        </mxCell>
        <mxCell id="BBi84ixBotoM4hK3SIDS-719" value="" style="endArrow=classic;html=1;rounded=0;exitX=0.5;exitY=1;exitDx=0;exitDy=0;" parent="WIyWlLk6GJQsqaUBKTNV-1" source="BBi84ixBotoM4hK3SIDS-710" target="BBi84ixBotoM4hK3SIDS-711" edge="1">
          <mxGeometry width="50" height="50" relative="1" as="geometry">
            <mxPoint x="2458" y="530" as="sourcePoint" />
            <mxPoint x="2508" y="480" as="targetPoint" />
          </mxGeometry>
        </mxCell>
        <mxCell id="BBi84ixBotoM4hK3SIDS-720" value="" style="endArrow=classic;html=1;rounded=0;exitX=0.927;exitY=0.829;exitDx=0;exitDy=0;exitPerimeter=0;" parent="WIyWlLk6GJQsqaUBKTNV-1" source="BBi84ixBotoM4hK3SIDS-711" target="BBi84ixBotoM4hK3SIDS-712" edge="1">
          <mxGeometry width="50" height="50" relative="1" as="geometry">
            <mxPoint x="2458" y="530" as="sourcePoint" />
            <mxPoint x="2508" y="480" as="targetPoint" />
            <Array as="points" />
          </mxGeometry>
        </mxCell>
        <mxCell id="BBi84ixBotoM4hK3SIDS-723" value="" style="endArrow=classic;html=1;rounded=0;exitX=0.5;exitY=1;exitDx=0;exitDy=0;entryX=0.581;entryY=-0.028;entryDx=0;entryDy=0;entryPerimeter=0;" parent="WIyWlLk6GJQsqaUBKTNV-1" target="BBi84ixBotoM4hK3SIDS-713" edge="1">
          <mxGeometry width="50" height="50" relative="1" as="geometry">
            <mxPoint x="2360" y="220" as="sourcePoint" />
            <mxPoint x="2196.25" y="275.95000000000005" as="targetPoint" />
            <Array as="points" />
          </mxGeometry>
        </mxCell>
        <mxCell id="BBi84ixBotoM4hK3SIDS-724" value="" style="endArrow=classic;html=1;rounded=0;exitX=0.962;exitY=0.645;exitDx=0;exitDy=0;entryX=0.5;entryY=0;entryDx=0;entryDy=0;exitPerimeter=0;" parent="WIyWlLk6GJQsqaUBKTNV-1" source="BBi84ixBotoM4hK3SIDS-713" target="BBi84ixBotoM4hK3SIDS-716" edge="1">
          <mxGeometry width="50" height="50" relative="1" as="geometry">
            <mxPoint x="2338" y="530" as="sourcePoint" />
            <mxPoint x="2388" y="480" as="targetPoint" />
            <Array as="points" />
          </mxGeometry>
        </mxCell>
        <mxCell id="BBi84ixBotoM4hK3SIDS-726" value="" style="endArrow=classic;html=1;rounded=0;entryX=0.5;entryY=0;entryDx=0;entryDy=0;exitX=0.033;exitY=0.62;exitDx=0;exitDy=0;exitPerimeter=0;" parent="WIyWlLk6GJQsqaUBKTNV-1" source="BBi84ixBotoM4hK3SIDS-713" target="BBi84ixBotoM4hK3SIDS-717" edge="1">
          <mxGeometry width="50" height="50" relative="1" as="geometry">
            <mxPoint x="2158" y="360" as="sourcePoint" />
            <mxPoint x="2388" y="480" as="targetPoint" />
            <Array as="points" />
          </mxGeometry>
        </mxCell>
        <mxCell id="BBi84ixBotoM4hK3SIDS-731" value="Bài 06" style="text;html=1;align=center;verticalAlign=middle;whiteSpace=wrap;rounded=0;fontStyle=1;fontSize=20;" parent="WIyWlLk6GJQsqaUBKTNV-1" vertex="1">
          <mxGeometry x="2048" y="50" width="110" height="30" as="geometry" />
        </mxCell>
        <mxCell id="BBi84ixBotoM4hK3SIDS-733" value="F" style="text;html=1;align=center;verticalAlign=middle;whiteSpace=wrap;rounded=0;fontStyle=1;fontSize=20;" parent="WIyWlLk6GJQsqaUBKTNV-1" vertex="1">
          <mxGeometry x="2240" y="210" width="60" height="30" as="geometry" />
        </mxCell>
        <mxCell id="BBi84ixBotoM4hK3SIDS-734" value="T" style="text;html=1;align=center;verticalAlign=middle;whiteSpace=wrap;rounded=0;fontStyle=1;fontSize=20;" parent="WIyWlLk6GJQsqaUBKTNV-1" vertex="1">
          <mxGeometry x="2530" y="240" width="60" height="30" as="geometry" />
        </mxCell>
        <mxCell id="BBi84ixBotoM4hK3SIDS-735" value="T" style="text;html=1;align=center;verticalAlign=middle;whiteSpace=wrap;rounded=0;fontStyle=1;fontSize=20;" parent="WIyWlLk6GJQsqaUBKTNV-1" vertex="1">
          <mxGeometry x="2340" y="325" width="60" height="30" as="geometry" />
        </mxCell>
        <mxCell id="BBi84ixBotoM4hK3SIDS-736" value="F" style="text;html=1;align=center;verticalAlign=middle;whiteSpace=wrap;rounded=0;fontStyle=1;fontSize=20;" parent="WIyWlLk6GJQsqaUBKTNV-1" vertex="1">
          <mxGeometry x="2088" y="305" width="60" height="30" as="geometry" />
        </mxCell>
        <mxCell id="BBi84ixBotoM4hK3SIDS-737" value="Bài 15" style="text;html=1;align=center;verticalAlign=middle;whiteSpace=wrap;rounded=0;fontStyle=1;fontSize=20;" parent="WIyWlLk6GJQsqaUBKTNV-1" vertex="1">
          <mxGeometry x="30" y="2360" width="110" height="30" as="geometry" />
        </mxCell>
        <mxCell id="BBi84ixBotoM4hK3SIDS-738" value="1-2" style="ellipse;whiteSpace=wrap;html=1;fontStyle=1;fontSize=20;" parent="WIyWlLk6GJQsqaUBKTNV-1" vertex="1">
          <mxGeometry x="270" y="2400" width="90" height="60" as="geometry" />
        </mxCell>
        <mxCell id="BBi84ixBotoM4hK3SIDS-739" value="year &amp;gt; 10 000" style="text;html=1;align=center;verticalAlign=middle;whiteSpace=wrap;rounded=0;fontSize=20;" parent="WIyWlLk6GJQsqaUBKTNV-1" vertex="1">
          <mxGeometry x="370" y="2520" width="140" height="30" as="geometry" />
        </mxCell>
        <mxCell id="BBi84ixBotoM4hK3SIDS-740" value="3.1" style="ellipse;whiteSpace=wrap;html=1;fontStyle=1;fontSize=20;" parent="WIyWlLk6GJQsqaUBKTNV-1" vertex="1">
          <mxGeometry x="270" y="2500" width="90" height="70" as="geometry" />
        </mxCell>
        <mxCell id="BBi84ixBotoM4hK3SIDS-741" value="" style="endArrow=classic;html=1;rounded=0;exitX=0;exitY=1;exitDx=0;exitDy=0;entryX=0.5;entryY=0;entryDx=0;entryDy=0;fontSize=20;fontStyle=1" parent="WIyWlLk6GJQsqaUBKTNV-1" source="BBi84ixBotoM4hK3SIDS-740" target="BBi84ixBotoM4hK3SIDS-744" edge="1">
          <mxGeometry width="50" height="50" relative="1" as="geometry">
            <mxPoint x="440" y="2570" as="sourcePoint" />
            <mxPoint x="230" y="2640" as="targetPoint" />
          </mxGeometry>
        </mxCell>
        <mxCell id="BBi84ixBotoM4hK3SIDS-742" value="T" style="text;html=1;align=center;verticalAlign=middle;whiteSpace=wrap;rounded=0;fontSize=20;fontStyle=1" parent="WIyWlLk6GJQsqaUBKTNV-1" vertex="1">
          <mxGeometry x="398" y="2550" width="30" height="30" as="geometry" />
        </mxCell>
        <mxCell id="BBi84ixBotoM4hK3SIDS-743" value="F" style="text;html=1;align=center;verticalAlign=middle;whiteSpace=wrap;rounded=0;fontSize=20;fontStyle=1" parent="WIyWlLk6GJQsqaUBKTNV-1" vertex="1">
          <mxGeometry x="220" y="2540" width="30" height="30" as="geometry" />
        </mxCell>
        <mxCell id="BBi84ixBotoM4hK3SIDS-744" value="3.2" style="ellipse;whiteSpace=wrap;html=1;fontStyle=1;fontSize=20;" parent="WIyWlLk6GJQsqaUBKTNV-1" vertex="1">
          <mxGeometry x="150" y="2600" width="90" height="70" as="geometry" />
        </mxCell>
        <mxCell id="BBi84ixBotoM4hK3SIDS-745" value="" style="endArrow=classic;html=1;rounded=0;exitX=0.5;exitY=1;exitDx=0;exitDy=0;" parent="WIyWlLk6GJQsqaUBKTNV-1" source="BBi84ixBotoM4hK3SIDS-738" target="BBi84ixBotoM4hK3SIDS-740" edge="1">
          <mxGeometry width="50" height="50" relative="1" as="geometry">
            <mxPoint x="195" y="2480" as="sourcePoint" />
            <mxPoint x="-150" y="2600" as="targetPoint" />
          </mxGeometry>
        </mxCell>
        <mxCell id="BBi84ixBotoM4hK3SIDS-746" value="4" style="ellipse;whiteSpace=wrap;html=1;fontStyle=1;fontSize=20;" parent="WIyWlLk6GJQsqaUBKTNV-1" vertex="1">
          <mxGeometry x="378" y="2600" width="90" height="70" as="geometry" />
        </mxCell>
        <mxCell id="BBi84ixBotoM4hK3SIDS-748" value="" style="endArrow=classic;html=1;rounded=0;exitX=1;exitY=0.5;exitDx=0;exitDy=0;entryX=0;entryY=0.5;entryDx=0;entryDy=0;fontSize=20;fontStyle=1;" parent="WIyWlLk6GJQsqaUBKTNV-1" source="BBi84ixBotoM4hK3SIDS-744" target="BBi84ixBotoM4hK3SIDS-746" edge="1">
          <mxGeometry width="50" height="50" relative="1" as="geometry">
            <mxPoint x="550" y="2690" as="sourcePoint" />
            <mxPoint x="340" y="2760" as="targetPoint" />
          </mxGeometry>
        </mxCell>
        <mxCell id="BBi84ixBotoM4hK3SIDS-750" value="T" style="text;html=1;align=center;verticalAlign=middle;whiteSpace=wrap;rounded=0;fontSize=20;fontStyle=1" parent="WIyWlLk6GJQsqaUBKTNV-1" vertex="1">
          <mxGeometry x="310" y="2610" width="30" height="30" as="geometry" />
        </mxCell>
        <mxCell id="BBi84ixBotoM4hK3SIDS-751" value="" style="endArrow=classic;html=1;rounded=0;exitX=0.796;exitY=0.917;exitDx=0;exitDy=0;exitPerimeter=0;" parent="WIyWlLk6GJQsqaUBKTNV-1" source="BBi84ixBotoM4hK3SIDS-740" target="BBi84ixBotoM4hK3SIDS-746" edge="1">
          <mxGeometry width="50" height="50" relative="1" as="geometry">
            <mxPoint x="425" y="2570" as="sourcePoint" />
            <mxPoint x="80" y="2690" as="targetPoint" />
          </mxGeometry>
        </mxCell>
        <mxCell id="BBi84ixBotoM4hK3SIDS-782" value="5" style="ellipse;whiteSpace=wrap;html=1;fontStyle=1;fontSize=20;" parent="WIyWlLk6GJQsqaUBKTNV-1" vertex="1">
          <mxGeometry x="150" y="2740" width="90" height="70" as="geometry" />
        </mxCell>
        <mxCell id="BBi84ixBotoM4hK3SIDS-783" value="" style="endArrow=classic;html=1;rounded=0;exitX=0.5;exitY=1;exitDx=0;exitDy=0;" parent="WIyWlLk6GJQsqaUBKTNV-1" source="BBi84ixBotoM4hK3SIDS-744" target="BBi84ixBotoM4hK3SIDS-782" edge="1">
          <mxGeometry width="50" height="50" relative="1" as="geometry">
            <mxPoint x="670" y="2800" as="sourcePoint" />
            <mxPoint x="720" y="2750" as="targetPoint" />
          </mxGeometry>
        </mxCell>
        <mxCell id="BBi84ixBotoM4hK3SIDS-784" value="F" style="text;html=1;align=center;verticalAlign=middle;whiteSpace=wrap;rounded=0;fontSize=20;fontStyle=1" parent="WIyWlLk6GJQsqaUBKTNV-1" vertex="1">
          <mxGeometry x="154" y="2690" width="30" height="30" as="geometry" />
        </mxCell>
        <mxCell id="BBi84ixBotoM4hK3SIDS-785" value="year &amp;lt; 1000" style="text;html=1;align=center;verticalAlign=middle;whiteSpace=wrap;rounded=0;fontSize=20;" parent="WIyWlLk6GJQsqaUBKTNV-1" vertex="1">
          <mxGeometry x="5" y="2620" width="140" height="30" as="geometry" />
        </mxCell>
        <mxCell id="BBi84ixBotoM4hK3SIDS-789" value="6" style="ellipse;whiteSpace=wrap;html=1;fontStyle=1;fontSize=20;" parent="WIyWlLk6GJQsqaUBKTNV-1" vertex="1">
          <mxGeometry x="154" y="2840" width="90" height="70" as="geometry" />
        </mxCell>
        <mxCell id="BBi84ixBotoM4hK3SIDS-790" value="" style="endArrow=classic;html=1;rounded=0;exitX=0.5;exitY=1;exitDx=0;exitDy=0;" parent="WIyWlLk6GJQsqaUBKTNV-1" target="BBi84ixBotoM4hK3SIDS-789" edge="1">
          <mxGeometry width="50" height="50" relative="1" as="geometry">
            <mxPoint x="195" y="2810" as="sourcePoint" />
            <mxPoint x="720" y="2890" as="targetPoint" />
          </mxGeometry>
        </mxCell>
        <mxCell id="BBi84ixBotoM4hK3SIDS-792" value="11" style="ellipse;whiteSpace=wrap;html=1;fontStyle=1;fontSize=20;" parent="WIyWlLk6GJQsqaUBKTNV-1" vertex="1">
          <mxGeometry x="-40" y="2950" width="90" height="70" as="geometry" />
        </mxCell>
        <mxCell id="BBi84ixBotoM4hK3SIDS-793" value="" style="endArrow=classic;html=1;rounded=0;exitX=0.5;exitY=1;exitDx=0;exitDy=0;" parent="WIyWlLk6GJQsqaUBKTNV-1" target="BBi84ixBotoM4hK3SIDS-792" edge="1">
          <mxGeometry width="50" height="50" relative="1" as="geometry">
            <mxPoint x="165" y="2900" as="sourcePoint" />
            <mxPoint x="690" y="2980" as="targetPoint" />
          </mxGeometry>
        </mxCell>
        <mxCell id="BBi84ixBotoM4hK3SIDS-794" value="F" style="text;html=1;align=center;verticalAlign=middle;whiteSpace=wrap;rounded=0;fontSize=20;fontStyle=1" parent="WIyWlLk6GJQsqaUBKTNV-1" vertex="1">
          <mxGeometry x="90" y="2893" width="30" height="30" as="geometry" />
        </mxCell>
        <mxCell id="BBi84ixBotoM4hK3SIDS-795" value="7" style="ellipse;whiteSpace=wrap;html=1;fontStyle=1;fontSize=20;" parent="WIyWlLk6GJQsqaUBKTNV-1" vertex="1">
          <mxGeometry x="260" y="2930" width="90" height="70" as="geometry" />
        </mxCell>
        <mxCell id="BBi84ixBotoM4hK3SIDS-796" value="" style="endArrow=classic;html=1;rounded=0;" parent="WIyWlLk6GJQsqaUBKTNV-1" source="BBi84ixBotoM4hK3SIDS-789" target="BBi84ixBotoM4hK3SIDS-795" edge="1">
          <mxGeometry width="50" height="50" relative="1" as="geometry">
            <mxPoint x="305" y="2890" as="sourcePoint" />
            <mxPoint x="830" y="2970" as="targetPoint" />
          </mxGeometry>
        </mxCell>
        <mxCell id="BBi84ixBotoM4hK3SIDS-797" value="T" style="text;html=1;align=center;verticalAlign=middle;whiteSpace=wrap;rounded=0;fontSize=20;fontStyle=1" parent="WIyWlLk6GJQsqaUBKTNV-1" vertex="1">
          <mxGeometry x="264" y="2893" width="30" height="30" as="geometry" />
        </mxCell>
        <mxCell id="BBi84ixBotoM4hK3SIDS-798" value="year % 100 =0" style="text;html=1;align=center;verticalAlign=middle;whiteSpace=wrap;rounded=0;fontSize=20;" parent="WIyWlLk6GJQsqaUBKTNV-1" vertex="1">
          <mxGeometry x="260" y="2850" width="140" height="30" as="geometry" />
        </mxCell>
        <mxCell id="BBi84ixBotoM4hK3SIDS-799" value="8" style="ellipse;whiteSpace=wrap;html=1;fontStyle=1;fontSize=20;" parent="WIyWlLk6GJQsqaUBKTNV-1" vertex="1">
          <mxGeometry x="415" y="3040" width="90" height="70" as="geometry" />
        </mxCell>
        <mxCell id="BBi84ixBotoM4hK3SIDS-800" value="" style="endArrow=classic;html=1;rounded=0;exitX=1;exitY=1;exitDx=0;exitDy=0;" parent="WIyWlLk6GJQsqaUBKTNV-1" source="BBi84ixBotoM4hK3SIDS-795" target="BBi84ixBotoM4hK3SIDS-799" edge="1">
          <mxGeometry width="50" height="50" relative="1" as="geometry">
            <mxPoint x="299" y="3000" as="sourcePoint" />
            <mxPoint x="824" y="3080" as="targetPoint" />
          </mxGeometry>
        </mxCell>
        <mxCell id="BBi84ixBotoM4hK3SIDS-802" value="T" style="text;html=1;align=center;verticalAlign=middle;whiteSpace=wrap;rounded=0;fontSize=20;fontStyle=1" parent="WIyWlLk6GJQsqaUBKTNV-1" vertex="1">
          <mxGeometry x="384" y="2990" width="30" height="30" as="geometry" />
        </mxCell>
        <mxCell id="BBi84ixBotoM4hK3SIDS-803" value="9" style="ellipse;whiteSpace=wrap;html=1;fontStyle=1;fontSize=20;" parent="WIyWlLk6GJQsqaUBKTNV-1" vertex="1">
          <mxGeometry x="180" y="3040" width="90" height="70" as="geometry" />
        </mxCell>
        <mxCell id="BBi84ixBotoM4hK3SIDS-804" value="" style="endArrow=classic;html=1;rounded=0;exitX=0;exitY=1;exitDx=0;exitDy=0;" parent="WIyWlLk6GJQsqaUBKTNV-1" source="BBi84ixBotoM4hK3SIDS-795" target="BBi84ixBotoM4hK3SIDS-803" edge="1">
          <mxGeometry width="50" height="50" relative="1" as="geometry">
            <mxPoint x="280" y="2990" as="sourcePoint" />
            <mxPoint x="805" y="3070" as="targetPoint" />
          </mxGeometry>
        </mxCell>
        <mxCell id="BBi84ixBotoM4hK3SIDS-805" value="F" style="text;html=1;align=center;verticalAlign=middle;whiteSpace=wrap;rounded=0;fontSize=20;fontStyle=1" parent="WIyWlLk6GJQsqaUBKTNV-1" vertex="1">
          <mxGeometry x="224" y="2990" width="30" height="30" as="geometry" />
        </mxCell>
        <mxCell id="BBi84ixBotoM4hK3SIDS-809" value="10" style="ellipse;whiteSpace=wrap;html=1;fontStyle=1;fontSize=20;" parent="WIyWlLk6GJQsqaUBKTNV-1" vertex="1">
          <mxGeometry x="184" y="3140" width="90" height="70" as="geometry" />
        </mxCell>
        <mxCell id="BBi84ixBotoM4hK3SIDS-810" value="" style="endArrow=classic;html=1;rounded=0;exitX=0.5;exitY=1;exitDx=0;exitDy=0;" parent="WIyWlLk6GJQsqaUBKTNV-1" target="BBi84ixBotoM4hK3SIDS-809" edge="1">
          <mxGeometry width="50" height="50" relative="1" as="geometry">
            <mxPoint x="229" y="3110" as="sourcePoint" />
            <mxPoint x="754" y="3190" as="targetPoint" />
          </mxGeometry>
        </mxCell>
        <mxCell id="BBi84ixBotoM4hK3SIDS-811" value="15" style="ellipse;whiteSpace=wrap;html=1;fontStyle=1;fontSize=20;" parent="WIyWlLk6GJQsqaUBKTNV-1" vertex="1">
          <mxGeometry x="215" y="3270" width="90" height="70" as="geometry" />
        </mxCell>
        <mxCell id="BBi84ixBotoM4hK3SIDS-812" value="" style="endArrow=classic;html=1;rounded=0;entryX=1;entryY=0.5;entryDx=0;entryDy=0;exitX=0.5;exitY=1;exitDx=0;exitDy=0;" parent="WIyWlLk6GJQsqaUBKTNV-1" source="BBi84ixBotoM4hK3SIDS-799" target="BBi84ixBotoM4hK3SIDS-811" edge="1">
          <mxGeometry width="50" height="50" relative="1" as="geometry">
            <mxPoint x="210" y="3300" as="sourcePoint" />
            <mxPoint x="260" y="3250" as="targetPoint" />
          </mxGeometry>
        </mxCell>
        <mxCell id="BBi84ixBotoM4hK3SIDS-814" value="" style="endArrow=classic;html=1;rounded=0;exitX=0.5;exitY=1;exitDx=0;exitDy=0;entryX=0.37;entryY=0.056;entryDx=0;entryDy=0;entryPerimeter=0;" parent="WIyWlLk6GJQsqaUBKTNV-1" source="BBi84ixBotoM4hK3SIDS-809" target="BBi84ixBotoM4hK3SIDS-811" edge="1">
          <mxGeometry width="50" height="50" relative="1" as="geometry">
            <mxPoint x="210" y="3300" as="sourcePoint" />
            <mxPoint x="250" y="3280" as="targetPoint" />
          </mxGeometry>
        </mxCell>
        <mxCell id="BBi84ixBotoM4hK3SIDS-815" value="" style="endArrow=classic;html=1;rounded=0;entryX=1;entryY=1;entryDx=0;entryDy=0;exitX=0.5;exitY=1;exitDx=0;exitDy=0;" parent="WIyWlLk6GJQsqaUBKTNV-1" source="BBi84ixBotoM4hK3SIDS-746" target="BBi84ixBotoM4hK3SIDS-811" edge="1">
          <mxGeometry width="50" height="50" relative="1" as="geometry">
            <mxPoint x="590" y="2740" as="sourcePoint" />
            <mxPoint x="468.9399999999998" y="3390.05" as="targetPoint" />
            <Array as="points">
              <mxPoint x="610" y="3040" />
            </Array>
          </mxGeometry>
        </mxCell>
        <mxCell id="BBi84ixBotoM4hK3SIDS-818" value="12" style="ellipse;whiteSpace=wrap;html=1;fontStyle=1;fontSize=20;" parent="WIyWlLk6GJQsqaUBKTNV-1" vertex="1">
          <mxGeometry x="60" y="3040" width="90" height="70" as="geometry" />
        </mxCell>
        <mxCell id="BBi84ixBotoM4hK3SIDS-819" value="" style="endArrow=classic;html=1;rounded=0;exitX=0.5;exitY=1;exitDx=0;exitDy=0;" parent="WIyWlLk6GJQsqaUBKTNV-1" target="BBi84ixBotoM4hK3SIDS-818" edge="1">
          <mxGeometry width="50" height="50" relative="1" as="geometry">
            <mxPoint x="35" y="3010" as="sourcePoint" />
            <mxPoint x="560" y="3090" as="targetPoint" />
          </mxGeometry>
        </mxCell>
        <mxCell id="BBi84ixBotoM4hK3SIDS-820" value="T" style="text;html=1;align=center;verticalAlign=middle;whiteSpace=wrap;rounded=0;fontSize=20;fontStyle=1" parent="WIyWlLk6GJQsqaUBKTNV-1" vertex="1">
          <mxGeometry x="70" y="3000" width="30" height="30" as="geometry" />
        </mxCell>
        <mxCell id="BBi84ixBotoM4hK3SIDS-821" value="13" style="ellipse;whiteSpace=wrap;html=1;fontStyle=1;fontSize=20;" parent="WIyWlLk6GJQsqaUBKTNV-1" vertex="1">
          <mxGeometry x="-160" y="3040" width="90" height="70" as="geometry" />
        </mxCell>
        <mxCell id="BBi84ixBotoM4hK3SIDS-822" value="" style="endArrow=classic;html=1;rounded=0;exitX=0;exitY=0.5;exitDx=0;exitDy=0;" parent="WIyWlLk6GJQsqaUBKTNV-1" source="BBi84ixBotoM4hK3SIDS-792" target="BBi84ixBotoM4hK3SIDS-821" edge="1">
          <mxGeometry width="50" height="50" relative="1" as="geometry">
            <mxPoint x="-115" y="2970" as="sourcePoint" />
            <mxPoint x="410" y="3050" as="targetPoint" />
          </mxGeometry>
        </mxCell>
        <mxCell id="BBi84ixBotoM4hK3SIDS-823" value="F" style="text;html=1;align=center;verticalAlign=middle;whiteSpace=wrap;rounded=0;fontSize=20;fontStyle=1" parent="WIyWlLk6GJQsqaUBKTNV-1" vertex="1">
          <mxGeometry x="-100" y="2990" width="30" height="30" as="geometry" />
        </mxCell>
        <mxCell id="BBi84ixBotoM4hK3SIDS-824" value="year % 4=0" style="text;html=1;align=center;verticalAlign=middle;whiteSpace=wrap;rounded=0;fontSize=20;" parent="WIyWlLk6GJQsqaUBKTNV-1" vertex="1">
          <mxGeometry x="-185" y="2950" width="140" height="30" as="geometry" />
        </mxCell>
        <mxCell id="BBi84ixBotoM4hK3SIDS-825" value="" style="endArrow=classic;html=1;rounded=0;entryX=0;entryY=0.5;entryDx=0;entryDy=0;exitX=0.5;exitY=1;exitDx=0;exitDy=0;" parent="WIyWlLk6GJQsqaUBKTNV-1" source="BBi84ixBotoM4hK3SIDS-818" target="BBi84ixBotoM4hK3SIDS-811" edge="1">
          <mxGeometry width="50" height="50" relative="1" as="geometry">
            <mxPoint x="210" y="3180" as="sourcePoint" />
            <mxPoint x="260" y="3130" as="targetPoint" />
          </mxGeometry>
        </mxCell>
        <mxCell id="BBi84ixBotoM4hK3SIDS-826" value="" style="endArrow=classic;html=1;rounded=0;entryX=0;entryY=1;entryDx=0;entryDy=0;exitX=0.5;exitY=1;exitDx=0;exitDy=0;" parent="WIyWlLk6GJQsqaUBKTNV-1" source="BBi84ixBotoM4hK3SIDS-821" target="BBi84ixBotoM4hK3SIDS-811" edge="1">
          <mxGeometry width="50" height="50" relative="1" as="geometry">
            <mxPoint x="210" y="3180" as="sourcePoint" />
            <mxPoint x="260" y="3130" as="targetPoint" />
          </mxGeometry>
        </mxCell>
        <mxCell id="xckqPGyGPBwkQpQkYYhn-0" value="B &amp;gt;C" style="text;html=1;align=center;verticalAlign=middle;whiteSpace=wrap;rounded=0;fontSize=20;" parent="WIyWlLk6GJQsqaUBKTNV-1" vertex="1">
          <mxGeometry x="1170" y="330" width="100" height="30" as="geometry" />
        </mxCell>
        <mxCell id="YWmDrCgMaOWqAknqm5Qs-0" value="year % 400 =0" style="text;html=1;align=center;verticalAlign=middle;whiteSpace=wrap;rounded=0;fontSize=20;" parent="WIyWlLk6GJQsqaUBKTNV-1" vertex="1">
          <mxGeometry x="365" y="2950" width="140" height="30" as="geometry" />
        </mxCell>
        <mxCell id="Bl8BzgtitnOVA1x4FWay-48" value="Bài 20" style="text;html=1;align=center;verticalAlign=middle;whiteSpace=wrap;rounded=0;fontStyle=1;fontSize=20;" parent="WIyWlLk6GJQsqaUBKTNV-1" vertex="1">
          <mxGeometry x="1200" y="2370" width="110" height="30" as="geometry" />
        </mxCell>
        <mxCell id="Bl8BzgtitnOVA1x4FWay-49" value="1-6" style="ellipse;whiteSpace=wrap;html=1;fontStyle=1;fontSize=20;" parent="WIyWlLk6GJQsqaUBKTNV-1" vertex="1">
          <mxGeometry x="1420" y="2440" width="90" height="60" as="geometry" />
        </mxCell>
        <mxCell id="Bl8BzgtitnOVA1x4FWay-96" value="" style="endArrow=classic;html=1;rounded=0;exitX=0.5;exitY=1;exitDx=0;exitDy=0;" parent="WIyWlLk6GJQsqaUBKTNV-1" source="Bl8BzgtitnOVA1x4FWay-49" edge="1">
          <mxGeometry width="50" height="50" relative="1" as="geometry">
            <mxPoint x="1340" y="2590" as="sourcePoint" />
            <mxPoint x="1465" y="2540" as="targetPoint" />
          </mxGeometry>
        </mxCell>
        <mxCell id="Bl8BzgtitnOVA1x4FWay-97" value="7" style="ellipse;whiteSpace=wrap;html=1;fontStyle=1;fontSize=20;" parent="WIyWlLk6GJQsqaUBKTNV-1" vertex="1">
          <mxGeometry x="1420" y="2540" width="90" height="60" as="geometry" />
        </mxCell>
        <mxCell id="Bl8BzgtitnOVA1x4FWay-98" value="8" style="ellipse;whiteSpace=wrap;html=1;fontStyle=1;fontSize=20;" parent="WIyWlLk6GJQsqaUBKTNV-1" vertex="1">
          <mxGeometry x="1420" y="2640" width="90" height="60" as="geometry" />
        </mxCell>
        <mxCell id="Bl8BzgtitnOVA1x4FWay-99" value="" style="endArrow=classic;html=1;rounded=0;exitX=0.5;exitY=1;exitDx=0;exitDy=0;entryX=0.5;entryY=0;entryDx=0;entryDy=0;" parent="WIyWlLk6GJQsqaUBKTNV-1" source="Bl8BzgtitnOVA1x4FWay-97" target="Bl8BzgtitnOVA1x4FWay-98" edge="1">
          <mxGeometry width="50" height="50" relative="1" as="geometry">
            <mxPoint x="1630" y="2590" as="sourcePoint" />
            <mxPoint x="1680" y="2540" as="targetPoint" />
          </mxGeometry>
        </mxCell>
        <mxCell id="Bl8BzgtitnOVA1x4FWay-100" value="&lt;font style=&quot;font-size: 18px;&quot;&gt;&lt;b&gt;str[i] = &#39;\0&#39;&lt;/b&gt;&lt;/font&gt;" style="text;html=1;align=center;verticalAlign=middle;whiteSpace=wrap;rounded=0;" parent="WIyWlLk6GJQsqaUBKTNV-1" vertex="1">
          <mxGeometry x="1510" y="2540" width="100" height="30" as="geometry" />
        </mxCell>
        <mxCell id="Bl8BzgtitnOVA1x4FWay-101" value="&lt;font style=&quot;font-size: 18px;&quot;&gt;&lt;b&gt;str[i] = tmp&lt;/b&gt;&lt;/font&gt;" style="text;html=1;align=center;verticalAlign=middle;whiteSpace=wrap;rounded=0;" parent="WIyWlLk6GJQsqaUBKTNV-1" vertex="1">
          <mxGeometry x="1525" y="2650" width="100" height="30" as="geometry" />
        </mxCell>
        <mxCell id="Bl8BzgtitnOVA1x4FWay-102" value="9-10" style="ellipse;whiteSpace=wrap;html=1;fontStyle=1;fontSize=20;" parent="WIyWlLk6GJQsqaUBKTNV-1" vertex="1">
          <mxGeometry x="1580" y="2740" width="90" height="60" as="geometry" />
        </mxCell>
        <mxCell id="Bl8BzgtitnOVA1x4FWay-103" value="" style="endArrow=classic;html=1;rounded=0;entryX=0;entryY=0;entryDx=0;entryDy=0;exitX=1;exitY=1;exitDx=0;exitDy=0;" parent="WIyWlLk6GJQsqaUBKTNV-1" source="Bl8BzgtitnOVA1x4FWay-98" target="Bl8BzgtitnOVA1x4FWay-102" edge="1">
          <mxGeometry width="50" height="50" relative="1" as="geometry">
            <mxPoint x="1630" y="2830" as="sourcePoint" />
            <mxPoint x="1680" y="2780" as="targetPoint" />
          </mxGeometry>
        </mxCell>
        <mxCell id="Bl8BzgtitnOVA1x4FWay-105" value="&lt;font style=&quot;font-size: 18px;&quot;&gt;&lt;b&gt;T&lt;/b&gt;&lt;/font&gt;" style="text;html=1;align=center;verticalAlign=middle;whiteSpace=wrap;rounded=0;" parent="WIyWlLk6GJQsqaUBKTNV-1" vertex="1">
          <mxGeometry x="1555" y="2700" width="40" height="30" as="geometry" />
        </mxCell>
        <mxCell id="Bl8BzgtitnOVA1x4FWay-107" value="" style="endArrow=classic;html=1;rounded=0;exitX=0;exitY=1;exitDx=0;exitDy=0;entryX=0.5;entryY=0;entryDx=0;entryDy=0;" parent="WIyWlLk6GJQsqaUBKTNV-1" source="Bl8BzgtitnOVA1x4FWay-98" target="Bl8BzgtitnOVA1x4FWay-108" edge="1">
          <mxGeometry width="50" height="50" relative="1" as="geometry">
            <mxPoint x="1630" y="2830" as="sourcePoint" />
            <mxPoint x="1380" y="2760" as="targetPoint" />
          </mxGeometry>
        </mxCell>
        <mxCell id="Bl8BzgtitnOVA1x4FWay-108" value="12" style="ellipse;whiteSpace=wrap;html=1;fontStyle=1;fontSize=20;" parent="WIyWlLk6GJQsqaUBKTNV-1" vertex="1">
          <mxGeometry x="1318" y="2740" width="90" height="60" as="geometry" />
        </mxCell>
        <mxCell id="Bl8BzgtitnOVA1x4FWay-109" value="&lt;font style=&quot;font-size: 18px;&quot;&gt;&lt;b&gt;F&lt;/b&gt;&lt;/font&gt;" style="text;html=1;align=center;verticalAlign=middle;whiteSpace=wrap;rounded=0;" parent="WIyWlLk6GJQsqaUBKTNV-1" vertex="1">
          <mxGeometry x="1370" y="2700" width="40" height="30" as="geometry" />
        </mxCell>
        <mxCell id="-Uy0ayySdKuzakB7ljd7-0" value="&lt;font style=&quot;font-size: 18px;&quot;&gt;&lt;b&gt;T&lt;/b&gt;&lt;/font&gt;" style="text;html=1;align=center;verticalAlign=middle;whiteSpace=wrap;rounded=0;" parent="WIyWlLk6GJQsqaUBKTNV-1" vertex="1">
          <mxGeometry x="1480" y="2600" width="30" height="30" as="geometry" />
        </mxCell>
        <mxCell id="-Uy0ayySdKuzakB7ljd7-1" value="" style="endArrow=classic;html=1;rounded=0;exitX=0;exitY=0.5;exitDx=0;exitDy=0;entryX=0;entryY=0.5;entryDx=0;entryDy=0;" parent="WIyWlLk6GJQsqaUBKTNV-1" source="Bl8BzgtitnOVA1x4FWay-108" target="Bl8BzgtitnOVA1x4FWay-97" edge="1">
          <mxGeometry width="50" height="50" relative="1" as="geometry">
            <mxPoint x="1470" y="2710" as="sourcePoint" />
            <mxPoint x="1520" y="2660" as="targetPoint" />
            <Array as="points">
              <mxPoint x="1280" y="2770" />
              <mxPoint x="1280" y="2570" />
            </Array>
          </mxGeometry>
        </mxCell>
        <mxCell id="-Uy0ayySdKuzakB7ljd7-3" value="14" style="ellipse;whiteSpace=wrap;html=1;fontStyle=1;fontSize=20;" parent="WIyWlLk6GJQsqaUBKTNV-1" vertex="1">
          <mxGeometry x="1698" y="2830" width="90" height="60" as="geometry" />
        </mxCell>
        <mxCell id="-Uy0ayySdKuzakB7ljd7-4" value="" style="endArrow=classic;html=1;rounded=0;exitX=1;exitY=1;exitDx=0;exitDy=0;" parent="WIyWlLk6GJQsqaUBKTNV-1" source="Bl8BzgtitnOVA1x4FWay-102" target="-Uy0ayySdKuzakB7ljd7-3" edge="1">
          <mxGeometry width="50" height="50" relative="1" as="geometry">
            <mxPoint x="1690" y="2810" as="sourcePoint" />
            <mxPoint x="1740" y="2760" as="targetPoint" />
          </mxGeometry>
        </mxCell>
        <mxCell id="-Uy0ayySdKuzakB7ljd7-5" value="" style="endArrow=classic;html=1;rounded=0;exitX=1;exitY=0.5;exitDx=0;exitDy=0;entryX=0.5;entryY=0;entryDx=0;entryDy=0;" parent="WIyWlLk6GJQsqaUBKTNV-1" source="Bl8BzgtitnOVA1x4FWay-97" target="-Uy0ayySdKuzakB7ljd7-3" edge="1">
          <mxGeometry width="50" height="50" relative="1" as="geometry">
            <mxPoint x="1690" y="2810" as="sourcePoint" />
            <mxPoint x="1740" y="2760" as="targetPoint" />
            <Array as="points">
              <mxPoint x="1743" y="2570" />
            </Array>
          </mxGeometry>
        </mxCell>
        <mxCell id="qlJ4dUjeKb9Us6ASM3Q9-0" value="1-5" style="ellipse;whiteSpace=wrap;html=1;fontStyle=1;fontSize=20;" parent="WIyWlLk6GJQsqaUBKTNV-1" vertex="1">
          <mxGeometry x="2990" y="2290" width="90" height="70" as="geometry" />
        </mxCell>
        <mxCell id="qlJ4dUjeKb9Us6ASM3Q9-1" value="" style="endArrow=classic;html=1;rounded=0;exitX=0.5;exitY=1;exitDx=0;exitDy=0;" parent="WIyWlLk6GJQsqaUBKTNV-1" source="qlJ4dUjeKb9Us6ASM3Q9-0" edge="1">
          <mxGeometry width="50" height="50" relative="1" as="geometry">
            <mxPoint x="3210" y="2450" as="sourcePoint" />
            <mxPoint x="3035" y="2430" as="targetPoint" />
          </mxGeometry>
        </mxCell>
        <mxCell id="qlJ4dUjeKb9Us6ASM3Q9-2" value="6" style="ellipse;whiteSpace=wrap;html=1;fontStyle=1;fontSize=20;" parent="WIyWlLk6GJQsqaUBKTNV-1" vertex="1">
          <mxGeometry x="2990" y="2430" width="90" height="70" as="geometry" />
        </mxCell>
        <mxCell id="qlJ4dUjeKb9Us6ASM3Q9-3" value="&lt;font style=&quot;font-size: 24px;&quot;&gt;&lt;b style=&quot;&quot;&gt;i &amp;lt; hexaString.Length&lt;/b&gt;&lt;/font&gt;" style="text;html=1;align=center;verticalAlign=middle;whiteSpace=wrap;rounded=0;" parent="WIyWlLk6GJQsqaUBKTNV-1" vertex="1">
          <mxGeometry x="3110" y="2450" width="270" height="30" as="geometry" />
        </mxCell>
        <mxCell id="qlJ4dUjeKb9Us6ASM3Q9-4" value="8" style="ellipse;whiteSpace=wrap;html=1;fontStyle=1;fontSize=20;" parent="WIyWlLk6GJQsqaUBKTNV-1" vertex="1">
          <mxGeometry x="2990" y="2570" width="90" height="70" as="geometry" />
        </mxCell>
        <mxCell id="qlJ4dUjeKb9Us6ASM3Q9-5" value="" style="endArrow=classic;html=1;rounded=0;exitX=0.5;exitY=1;exitDx=0;exitDy=0;entryX=0.5;entryY=0;entryDx=0;entryDy=0;" parent="WIyWlLk6GJQsqaUBKTNV-1" source="qlJ4dUjeKb9Us6ASM3Q9-2" target="qlJ4dUjeKb9Us6ASM3Q9-4" edge="1">
          <mxGeometry width="50" height="50" relative="1" as="geometry">
            <mxPoint x="3210" y="2440" as="sourcePoint" />
            <mxPoint x="3260" y="2390" as="targetPoint" />
          </mxGeometry>
        </mxCell>
        <mxCell id="qlJ4dUjeKb9Us6ASM3Q9-6" value="9" style="ellipse;whiteSpace=wrap;html=1;fontStyle=1;fontSize=20;" parent="WIyWlLk6GJQsqaUBKTNV-1" vertex="1">
          <mxGeometry x="2990" y="2710" width="90" height="70" as="geometry" />
        </mxCell>
        <mxCell id="qlJ4dUjeKb9Us6ASM3Q9-7" value="" style="endArrow=classic;html=1;rounded=0;exitX=0.5;exitY=1;exitDx=0;exitDy=0;entryX=0.5;entryY=0;entryDx=0;entryDy=0;" parent="WIyWlLk6GJQsqaUBKTNV-1" source="qlJ4dUjeKb9Us6ASM3Q9-4" target="qlJ4dUjeKb9Us6ASM3Q9-6" edge="1">
          <mxGeometry width="50" height="50" relative="1" as="geometry">
            <mxPoint x="3210" y="2780" as="sourcePoint" />
            <mxPoint x="3260" y="2730" as="targetPoint" />
          </mxGeometry>
        </mxCell>
        <mxCell id="qlJ4dUjeKb9Us6ASM3Q9-8" value="&lt;span style=&quot;font-size: 24px;&quot;&gt;&lt;b&gt;c&lt;/b&gt;&lt;/span&gt;" style="text;html=1;align=center;verticalAlign=middle;whiteSpace=wrap;rounded=0;" parent="WIyWlLk6GJQsqaUBKTNV-1" vertex="1">
          <mxGeometry x="3089" y="2710" width="42" height="30" as="geometry" />
        </mxCell>
        <mxCell id="qlJ4dUjeKb9Us6ASM3Q9-9" value="11-14" style="ellipse;whiteSpace=wrap;html=1;fontStyle=1;fontSize=20;" parent="WIyWlLk6GJQsqaUBKTNV-1" vertex="1">
          <mxGeometry x="3360" y="2830" width="90" height="70" as="geometry" />
        </mxCell>
        <mxCell id="qlJ4dUjeKb9Us6ASM3Q9-10" value="" style="endArrow=classic;html=1;rounded=0;exitX=1;exitY=0.5;exitDx=0;exitDy=0;entryX=0.5;entryY=0;entryDx=0;entryDy=0;" parent="WIyWlLk6GJQsqaUBKTNV-1" source="qlJ4dUjeKb9Us6ASM3Q9-6" target="qlJ4dUjeKb9Us6ASM3Q9-9" edge="1">
          <mxGeometry width="50" height="50" relative="1" as="geometry">
            <mxPoint x="3210" y="2940" as="sourcePoint" />
            <mxPoint x="3260" y="2890" as="targetPoint" />
          </mxGeometry>
        </mxCell>
        <mxCell id="qlJ4dUjeKb9Us6ASM3Q9-11" value="15-18" style="ellipse;whiteSpace=wrap;html=1;fontStyle=1;fontSize=20;" parent="WIyWlLk6GJQsqaUBKTNV-1" vertex="1">
          <mxGeometry x="3360" y="2990" width="90" height="70" as="geometry" />
        </mxCell>
        <mxCell id="qlJ4dUjeKb9Us6ASM3Q9-12" value="" style="endArrow=classic;html=1;rounded=0;entryX=0.5;entryY=0;entryDx=0;entryDy=0;exitX=0.5;exitY=1;exitDx=0;exitDy=0;" parent="WIyWlLk6GJQsqaUBKTNV-1" source="qlJ4dUjeKb9Us6ASM3Q9-9" target="qlJ4dUjeKb9Us6ASM3Q9-11" edge="1">
          <mxGeometry width="50" height="50" relative="1" as="geometry">
            <mxPoint x="3210" y="2940" as="sourcePoint" />
            <mxPoint x="3260" y="2890" as="targetPoint" />
          </mxGeometry>
        </mxCell>
        <mxCell id="qlJ4dUjeKb9Us6ASM3Q9-13" value="19-20" style="ellipse;whiteSpace=wrap;html=1;fontStyle=1;fontSize=20;" parent="WIyWlLk6GJQsqaUBKTNV-1" vertex="1">
          <mxGeometry x="3185" y="2830" width="90" height="70" as="geometry" />
        </mxCell>
        <mxCell id="qlJ4dUjeKb9Us6ASM3Q9-14" value="21-24" style="ellipse;whiteSpace=wrap;html=1;fontStyle=1;fontSize=20;" parent="WIyWlLk6GJQsqaUBKTNV-1" vertex="1">
          <mxGeometry x="3185" y="2990" width="90" height="70" as="geometry" />
        </mxCell>
        <mxCell id="qlJ4dUjeKb9Us6ASM3Q9-15" value="" style="endArrow=classic;html=1;rounded=0;entryX=0.5;entryY=0;entryDx=0;entryDy=0;exitX=0.5;exitY=1;exitDx=0;exitDy=0;" parent="WIyWlLk6GJQsqaUBKTNV-1" source="qlJ4dUjeKb9Us6ASM3Q9-13" target="qlJ4dUjeKb9Us6ASM3Q9-14" edge="1">
          <mxGeometry width="50" height="50" relative="1" as="geometry">
            <mxPoint x="3035" y="2940" as="sourcePoint" />
            <mxPoint x="3085" y="2890" as="targetPoint" />
          </mxGeometry>
        </mxCell>
        <mxCell id="qlJ4dUjeKb9Us6ASM3Q9-16" value="25-26" style="ellipse;whiteSpace=wrap;html=1;fontStyle=1;fontSize=20;" parent="WIyWlLk6GJQsqaUBKTNV-1" vertex="1">
          <mxGeometry x="2990" y="2830" width="90" height="70" as="geometry" />
        </mxCell>
        <mxCell id="qlJ4dUjeKb9Us6ASM3Q9-17" value="27-30" style="ellipse;whiteSpace=wrap;html=1;fontStyle=1;fontSize=20;" parent="WIyWlLk6GJQsqaUBKTNV-1" vertex="1">
          <mxGeometry x="2990" y="2990" width="90" height="70" as="geometry" />
        </mxCell>
        <mxCell id="qlJ4dUjeKb9Us6ASM3Q9-18" value="" style="endArrow=classic;html=1;rounded=0;entryX=0.5;entryY=0;entryDx=0;entryDy=0;exitX=0.5;exitY=1;exitDx=0;exitDy=0;" parent="WIyWlLk6GJQsqaUBKTNV-1" source="qlJ4dUjeKb9Us6ASM3Q9-16" target="qlJ4dUjeKb9Us6ASM3Q9-17" edge="1">
          <mxGeometry width="50" height="50" relative="1" as="geometry">
            <mxPoint x="2840" y="2940" as="sourcePoint" />
            <mxPoint x="2890" y="2890" as="targetPoint" />
          </mxGeometry>
        </mxCell>
        <mxCell id="qlJ4dUjeKb9Us6ASM3Q9-22" value="31" style="ellipse;whiteSpace=wrap;html=1;fontStyle=1;fontSize=20;" parent="WIyWlLk6GJQsqaUBKTNV-1" vertex="1">
          <mxGeometry x="2820" y="2830" width="90" height="70" as="geometry" />
        </mxCell>
        <mxCell id="qlJ4dUjeKb9Us6ASM3Q9-23" value="32" style="ellipse;whiteSpace=wrap;html=1;fontStyle=1;fontSize=20;" parent="WIyWlLk6GJQsqaUBKTNV-1" vertex="1">
          <mxGeometry x="2820" y="2990" width="90" height="70" as="geometry" />
        </mxCell>
        <mxCell id="qlJ4dUjeKb9Us6ASM3Q9-24" value="" style="endArrow=classic;html=1;rounded=0;entryX=0.5;entryY=0;entryDx=0;entryDy=0;exitX=0.5;exitY=1;exitDx=0;exitDy=0;" parent="WIyWlLk6GJQsqaUBKTNV-1" source="qlJ4dUjeKb9Us6ASM3Q9-22" target="qlJ4dUjeKb9Us6ASM3Q9-23" edge="1">
          <mxGeometry width="50" height="50" relative="1" as="geometry">
            <mxPoint x="2670" y="2940" as="sourcePoint" />
            <mxPoint x="2720" y="2890" as="targetPoint" />
          </mxGeometry>
        </mxCell>
        <mxCell id="qlJ4dUjeKb9Us6ASM3Q9-25" value="" style="endArrow=classic;html=1;rounded=0;exitX=0;exitY=0.5;exitDx=0;exitDy=0;entryX=0.5;entryY=0;entryDx=0;entryDy=0;" parent="WIyWlLk6GJQsqaUBKTNV-1" source="qlJ4dUjeKb9Us6ASM3Q9-6" target="qlJ4dUjeKb9Us6ASM3Q9-22" edge="1">
          <mxGeometry width="50" height="50" relative="1" as="geometry">
            <mxPoint x="3210" y="2940" as="sourcePoint" />
            <mxPoint x="3260" y="2890" as="targetPoint" />
          </mxGeometry>
        </mxCell>
        <mxCell id="qlJ4dUjeKb9Us6ASM3Q9-26" value="" style="endArrow=classic;html=1;rounded=0;exitX=0.5;exitY=1;exitDx=0;exitDy=0;entryX=0.5;entryY=0;entryDx=0;entryDy=0;" parent="WIyWlLk6GJQsqaUBKTNV-1" source="qlJ4dUjeKb9Us6ASM3Q9-6" target="qlJ4dUjeKb9Us6ASM3Q9-16" edge="1">
          <mxGeometry width="50" height="50" relative="1" as="geometry">
            <mxPoint x="3210" y="2940" as="sourcePoint" />
            <mxPoint x="3260" y="2890" as="targetPoint" />
          </mxGeometry>
        </mxCell>
        <mxCell id="qlJ4dUjeKb9Us6ASM3Q9-27" value="" style="endArrow=classic;html=1;rounded=0;exitX=1;exitY=1;exitDx=0;exitDy=0;entryX=0.326;entryY=0.005;entryDx=0;entryDy=0;entryPerimeter=0;" parent="WIyWlLk6GJQsqaUBKTNV-1" source="qlJ4dUjeKb9Us6ASM3Q9-6" target="qlJ4dUjeKb9Us6ASM3Q9-13" edge="1">
          <mxGeometry width="50" height="50" relative="1" as="geometry">
            <mxPoint x="3210" y="2940" as="sourcePoint" />
            <mxPoint x="3260" y="2890" as="targetPoint" />
          </mxGeometry>
        </mxCell>
        <mxCell id="qlJ4dUjeKb9Us6ASM3Q9-28" value="&lt;font style=&quot;font-size: 24px;&quot;&gt;&lt;b style=&quot;&quot;&gt;T&lt;/b&gt;&lt;/font&gt;" style="text;html=1;align=center;verticalAlign=middle;whiteSpace=wrap;rounded=0;" parent="WIyWlLk6GJQsqaUBKTNV-1" vertex="1">
          <mxGeometry x="3040" y="2520" width="50" height="30" as="geometry" />
        </mxCell>
        <mxCell id="qlJ4dUjeKb9Us6ASM3Q9-29" value="35" style="ellipse;whiteSpace=wrap;html=1;fontStyle=1;fontSize=20;" parent="WIyWlLk6GJQsqaUBKTNV-1" vertex="1">
          <mxGeometry x="3675" y="3000" width="90" height="70" as="geometry" />
        </mxCell>
        <mxCell id="qlJ4dUjeKb9Us6ASM3Q9-30" value="" style="endArrow=classic;html=1;rounded=0;exitX=0.5;exitY=1;exitDx=0;exitDy=0;entryX=0;entryY=0.5;entryDx=0;entryDy=0;" parent="WIyWlLk6GJQsqaUBKTNV-1" source="qlJ4dUjeKb9Us6ASM3Q9-23" target="qlJ4dUjeKb9Us6ASM3Q9-2" edge="1">
          <mxGeometry width="50" height="50" relative="1" as="geometry">
            <mxPoint x="2650" y="3207.91" as="sourcePoint" />
            <mxPoint x="2788.6314723017986" y="2638.004822158561" as="targetPoint" />
            <Array as="points">
              <mxPoint x="2865" y="3200" />
              <mxPoint x="2560" y="3200" />
              <mxPoint x="2560" y="2465" />
            </Array>
          </mxGeometry>
        </mxCell>
        <mxCell id="qlJ4dUjeKb9Us6ASM3Q9-32" value="" style="endArrow=classic;html=1;rounded=0;exitX=0.5;exitY=1;exitDx=0;exitDy=0;" parent="WIyWlLk6GJQsqaUBKTNV-1" source="qlJ4dUjeKb9Us6ASM3Q9-17" edge="1">
          <mxGeometry width="50" height="50" relative="1" as="geometry">
            <mxPoint x="2955" y="3145" as="sourcePoint" />
            <mxPoint x="2990" y="2470" as="targetPoint" />
            <Array as="points">
              <mxPoint x="3035" y="3200" />
              <mxPoint x="2560" y="3200" />
              <mxPoint x="2560" y="2470" />
            </Array>
          </mxGeometry>
        </mxCell>
        <mxCell id="qlJ4dUjeKb9Us6ASM3Q9-33" value="" style="endArrow=classic;html=1;rounded=0;exitX=0.5;exitY=1;exitDx=0;exitDy=0;entryX=0;entryY=0.5;entryDx=0;entryDy=0;" parent="WIyWlLk6GJQsqaUBKTNV-1" source="qlJ4dUjeKb9Us6ASM3Q9-14" target="qlJ4dUjeKb9Us6ASM3Q9-2" edge="1">
          <mxGeometry width="50" height="50" relative="1" as="geometry">
            <mxPoint x="3470" y="2880" as="sourcePoint" />
            <mxPoint x="3520" y="2830" as="targetPoint" />
            <Array as="points">
              <mxPoint x="3230" y="3200" />
              <mxPoint x="2560" y="3200" />
              <mxPoint x="2560" y="2465" />
            </Array>
          </mxGeometry>
        </mxCell>
        <mxCell id="qlJ4dUjeKb9Us6ASM3Q9-34" value="" style="endArrow=classic;html=1;rounded=0;exitX=0.5;exitY=1;exitDx=0;exitDy=0;" parent="WIyWlLk6GJQsqaUBKTNV-1" source="qlJ4dUjeKb9Us6ASM3Q9-11" edge="1">
          <mxGeometry width="50" height="50" relative="1" as="geometry">
            <mxPoint x="3470" y="2880" as="sourcePoint" />
            <mxPoint x="2990" y="2470" as="targetPoint" />
            <Array as="points">
              <mxPoint x="3405" y="3200" />
              <mxPoint x="2560" y="3200" />
              <mxPoint x="2560" y="2470" />
            </Array>
          </mxGeometry>
        </mxCell>
        <mxCell id="qlJ4dUjeKb9Us6ASM3Q9-35" value="" style="endArrow=classic;html=1;rounded=0;exitX=0.974;exitY=0.676;exitDx=0;exitDy=0;exitPerimeter=0;entryX=0.5;entryY=0;entryDx=0;entryDy=0;" parent="WIyWlLk6GJQsqaUBKTNV-1" source="qlJ4dUjeKb9Us6ASM3Q9-2" target="qlJ4dUjeKb9Us6ASM3Q9-29" edge="1">
          <mxGeometry width="50" height="50" relative="1" as="geometry">
            <mxPoint x="3470" y="2880" as="sourcePoint" />
            <mxPoint x="3520" y="2830" as="targetPoint" />
          </mxGeometry>
        </mxCell>
        <mxCell id="qlJ4dUjeKb9Us6ASM3Q9-36" value="&lt;font style=&quot;font-size: 24px;&quot;&gt;&lt;b style=&quot;&quot;&gt;F&lt;/b&gt;&lt;/font&gt;" style="text;html=1;align=center;verticalAlign=middle;whiteSpace=wrap;rounded=0;" parent="WIyWlLk6GJQsqaUBKTNV-1" vertex="1">
          <mxGeometry x="3360" y="2650" width="50" height="30" as="geometry" />
        </mxCell>
        <mxCell id="qlJ4dUjeKb9Us6ASM3Q9-37" value="Bài 21" style="text;html=1;align=center;verticalAlign=middle;whiteSpace=wrap;rounded=0;fontStyle=1;fontSize=20;" parent="WIyWlLk6GJQsqaUBKTNV-1" vertex="1">
          <mxGeometry x="2481" y="2310" width="110" height="30" as="geometry" />
        </mxCell>
      </root>
    </mxGraphModel>
  </diagram>
</mxfile>
